<?xml version="1.0" encoding="UTF-8" standalone="no"?>
<svg
   xmlns:dc="http://purl.org/dc/elements/1.1/"
   xmlns:cc="http://creativecommons.org/ns#"
   xmlns:rdf="http://www.w3.org/1999/02/22-rdf-syntax-ns#"
   xmlns:svg="http://www.w3.org/2000/svg"
   xmlns="http://www.w3.org/2000/svg"
   xmlns:sodipodi="http://sodipodi.sourceforge.net/DTD/sodipodi-0.dtd"
   xmlns:inkscape="http://www.inkscape.org/namespaces/inkscape"
   width="100px"
   height="100px"
   viewBox="0 0 100 100"
   version="1.1"
   id="SVGRoot"
   sodipodi:docname="logoThree.svg"
   inkscape:version="1.0.1 (3bc2e813f5, 2020-09-07)">
  <defs
     id="defs1402" />
  <sodipodi:namedview
     id="base"
     pagecolor="#ffffff"
     bordercolor="#666666"
     borderopacity="1.0"
     inkscape:pageopacity="0.0"
     inkscape:pageshadow="2"
     inkscape:zoom="3.959798"
     inkscape:cx="18.810865"
     inkscape:cy="91.577743"
     inkscape:document-units="px"
     inkscape:current-layer="layer1"
     inkscape:document-rotation="0"
     showgrid="false"
     inkscape:window-width="1313"
     inkscape:window-height="1030"
     inkscape:window-x="224"
     inkscape:window-y="0"
     inkscape:window-maximized="0" />
  <metadata
     id="metadata1405">
    <rdf:RDF>
      <cc:Work
         rdf:about="">
        <dc:format>image/svg+xml</dc:format>
        <dc:type
           rdf:resource="http://purl.org/dc/dcmitype/StillImage" />
        <dc:title></dc:title>
      </cc:Work>
    </rdf:RDF>
  </metadata>
  <g
     inkscape:label="Ebene 1"
     inkscape:groupmode="layer"
     id="layer1">
    <path
       style="fill:#747474;stroke-width:0.0447707"
       d="M 20.00581,97.685772 C 18.218879,97.570534 16.333719,97.314355 14.586362,96.949224 14.301989,96.889684 14.036583,96.828679 13.996563,96.813306 13.884235,96.770196 12.733544,94.998148 12.049657,93.815105 9.0778941,88.67419 7.4263241,83.343821 7.0639331,77.723925 c -0.06893,-1.068803 -0.02924,-4.009263 0.06738,-4.995849 0.261059,-2.66499 0.683272,-4.788517 1.44016,-7.243175 l 0.286915,-0.930535 -0.395157,-0.524523 C 6.8067821,61.830906 5.7381706,59.54636 5.2546108,57.170184 5.0461814,56.146058 4.9901062,55.558489 4.9896682,54.394404 c -4.055e-4,-1.106925 0.035711,-1.557085 0.201352,-2.507175 0.5836907,-3.348242 2.4605179,-6.746843 5.3816468,-9.74512 L 11.190634,41.507844 10.82519,40.731851 C 9.0901641,37.047707 7.9497931,33.439559 7.4527921,30.061494 c -0.241711,-1.64289 -0.273222,-2.113914 -0.272542,-4.074135 6.54e-4,-1.90646 0.0244,-2.290565 0.247474,-4.006968 0.802368,-6.173137 3.1074909,-11.788792 6.9697389,-16.9795322 0.618581,-0.8313862 1.639588,-2.110383 1.772909,-2.2209115 0.09734,-0.080769 2.051639,-0.1508824 3.253416,-0.1168078 6.703081,0.190188 11.347978,1.3524426 17.303898,4.3298568 3.258059,1.6287642 5.537485,3.1509247 7.838912,5.2346237 0.665699,0.602742 1.886133,1.84858 2.264569,2.311754 l 0.193798,0.237148 0.492475,-0.03598 c 0.759726,-0.05493 2.714662,-0.03989 3.290655,0.02551 5.103506,0.579 9.252606,3.126595 11.896922,7.304784 0.991013,1.565913 1.876262,3.807361 2.256386,5.713234 l 0.05476,0.274555 0.495801,0.02944 c 6.023995,0.361803 11.68092,2.024184 16.389418,4.816314 2.311264,1.370624 4.257669,2.887159 6.202585,4.83273 3.49876,3.50004 6.13679,7.653573 8.176521,12.873807 0.214648,0.549309 0.324828,0.890247 0.311118,0.962583 -0.0305,0.1603 -0.538839,1.292206 -0.945075,2.104169 -3.847379,7.690262 -11.069978,13.903427 -20.035439,17.235252 -1.315972,0.489008 -3.065738,1.039887 -4.275611,1.346033 -0.221616,0.05625 -0.425139,0.124002 -0.452274,0.151012 -0.02711,0.02681 -0.115298,0.215956 -0.195917,0.419944 -0.360588,0.912354 -1.089231,2.262965 -1.695938,3.143605 -1.081518,1.569899 -2.608832,3.090754 -4.125245,4.107873 -2.783562,1.867031 -6.012053,2.771933 -9.575931,2.68409 -1.703446,-0.04188 -3.361458,-0.290192 -4.942115,-0.739765 l -0.303312,-0.08622 -0.477309,0.654666 c -3.015536,4.136074 -6.597571,7.621982 -10.332597,10.055258 -4.398501,2.865445 -9.060892,4.481919 -14.349034,4.974726 -0.910549,0.08479 -3.927067,0.122692 -4.880009,0.06144 z m 4.880009,-0.733091 c 4.892592,-0.486521 9.027062,-1.843075 13.058091,-4.284603 4.115292,-2.492461 7.880665,-6.061892 11.177606,-10.595931 0.29126,-0.40051 0.578864,-0.760551 0.639118,-0.800052 0.103289,-0.0677 0.148488,-0.06153 0.791165,0.111373 1.856402,0.49876 3.035961,0.672404 4.822913,0.709873 1.226805,0.02554 2.09687,-0.03209 3.156339,-0.210401 2.247485,-0.377759 4.467872,-1.284873 6.247791,-2.552369 0.970887,-0.691357 2.133994,-1.779113 2.871036,-2.685068 2.084461,-2.562171 3.38131,-5.817607 3.798843,-9.536218 0.02906,-0.258534 0.081,-0.514843 0.115519,-0.569584 0.04129,-0.06553 0.16585,-0.129888 0.364699,-0.188489 1.06583,-0.314124 1.417739,-0.425895 2.09537,-0.665396 6.964665,-2.462049 13.002376,-7.549257 16.331598,-13.760524 l 0.255594,-0.476844 -0.326654,-0.687242 c -2.108835,-4.43646 -4.988506,-8.171815 -8.461088,-10.97526 -3.100523,-2.503055 -6.726595,-4.262491 -10.622582,-5.154245 -0.707856,-0.162064 -1.952603,-0.393979 -1.978002,-0.368603 -0.0079,0.0085 0.08161,0.144146 0.199684,0.30196 1.047333,1.399988 2.05327,3.625674 2.547767,5.63704 0.06357,0.258533 0.138058,0.493194 0.165544,0.521513 0.02747,0.02813 0.321956,0.165793 0.654371,0.305557 0.798468,0.335772 2.423595,1.171803 3.178729,1.635174 1.558982,0.956762 2.954594,2.056035 4.113448,3.240067 0.542974,0.554737 0.537233,0.522821 0.200187,1.114249 -0.269862,0.473574 -0.997466,1.589655 -1.251772,1.920129 -0.108096,0.140484 -0.196542,0.275342 -0.196542,0.299671 0,0.0242 0.105068,0.16998 0.233485,0.323674 l 0.233474,0.279395 0.24124,-0.264289 c 0.338666,-0.371023 0.839663,-1.043091 1.149532,-1.542041 0.327853,-0.527857 0.918062,-1.66081 0.918062,-1.76225 0,-0.108892 -1.98392,-2.083764 -2.61909,-2.607109 -1.715121,-1.413069 -3.555014,-2.494945 -5.477621,-3.220903 -0.4515,-0.170438 -0.707108,-0.291103 -0.745353,-0.351862 -0.03196,-0.05101 -0.139985,-0.366969 -0.239929,-0.702479 -0.211897,-0.711245 -0.567854,-1.726476 -0.972876,-2.774669 -0.157945,-0.408761 -0.287181,-0.787437 -0.287181,-0.841459 0,-0.118835 0.188443,-0.318114 0.300818,-0.318114 0.04454,0 0.443382,0.109091 0.886253,0.242314 4.863018,1.463298 8.854372,3.919983 11.899339,7.323947 1.322347,1.478276 2.507129,3.151317 3.453813,4.877202 0.727551,1.326348 1.652345,3.320185 1.65225,3.562106 0,0.291299 -1.31471,2.456815 -2.255549,3.715537 -2.93151,3.922076 -6.86098,6.910478 -12.109018,9.209153 -1.274856,0.558398 -3.748281,1.507966 -4.533041,1.74034 l -0.190283,0.05623 -5.81e-4,0.384628 c -6.51e-4,0.485935 -0.105921,1.71104 -0.20215,2.354594 -0.764379,5.111993 -3.65996,9.032241 -8.10262,10.969834 -1.249866,0.545127 -2.554422,0.903714 -4.080395,1.121645 -0.673233,0.09613 -2.763182,0.1359 -3.497939,0.06656 -1.535285,-0.14493 -3.02432,-0.473512 -4.356984,-0.961533 -0.517224,-0.189406 -0.559375,-0.198047 -0.614202,-0.125967 -0.03237,0.04254 -0.200985,0.319163 -0.374692,0.614653 -0.967756,1.64628 -2.374972,3.585905 -3.637925,5.01434 -0.988031,1.117524 -2.492997,2.567998 -3.60671,3.476232 -3.789205,3.089965 -8.275999,5.223887 -13.162601,6.260187 -2.94623,0.624784 -6.109901,0.888293 -9.226103,0.76847 -2.255746,-0.08679 -4.73277,-0.333406 -4.882723,-0.486255 C 14.513347,95.524477 13.628154,93.964767 13.044228,92.85124 10.91883,88.79829 9.5178651,84.640823 8.8806361,80.495671 8.3145581,76.813283 8.3530341,73.00926 8.9937291,69.315632 c 0.169443,-0.97684 0.302325,-1.595932 0.586719,-2.7334 l 0.226898,-0.907617 -0.216676,-0.253628 -0.216676,-0.253629 -0.192647,0.601566 c -0.733363,2.289779 -1.263928,5.176219 -1.443756,7.854419 -0.09604,1.43014 -0.05533,3.750525 0.09313,5.305326 0.539643,5.652541 2.6063839,11.322991 6.0294189,16.542766 0.258369,0.393997 0.476759,0.723889 0.485307,0.733157 0.02492,0.02687 1.007225,0.22152 1.83247,0.362927 1.192208,0.204305 2.562114,0.365329 3.805519,0.447285 0.943041,0.0622 4.047718,0.02288 4.902401,-0.0622 z m -2.185025,-1.503782 c 4.022448,-0.199605 7.467196,-0.911178 10.894835,-2.250535 2.780307,-1.086398 5.63048,-2.759494 7.900144,-4.637512 1.471818,-1.217911 2.934503,-2.67336 4.12314,-4.102849 1.150939,-1.384167 2.300793,-3.046476 3.215391,-4.648356 0.405805,-0.710718 0.424948,-0.722502 0.892707,-0.547481 2.280395,0.853303 4.042874,1.193849 6.164688,1.191228 1.41515,0 2.377275,-0.109417 3.611772,-0.404308 1.640896,-0.392031 3.26107,-1.118246 4.601543,-2.062582 1.66544,-1.17331 3.098876,-2.830121 3.983764,-4.604542 L 68.2762,73.0061 68.104556,73.03488 c -0.452715,0.07613 -1.828553,0.250162 -2.196371,0.277827 l -0.41299,0.03073 -0.253223,0.336427 c -0.139271,0.185021 -0.394765,0.499797 -0.567757,0.699468 -2.395913,2.765257 -5.158855,4.102991 -8.469902,4.100893 -1.613768,0 -3.057165,-0.256179 -4.952538,-0.875465 l -0.60844,-0.198826 -0.667529,0.331326 c -5.304865,2.633004 -10.415566,2.80737 -15.643217,0.533808 -1.972385,-0.857804 -4.304454,-2.337913 -6.392895,-4.057391 l -0.594946,-0.489861 -0.569093,-0.03924 c -2.11519,-0.145322 -4.365931,-0.733284 -6.760571,-1.765977 -0.31035,-0.133878 -0.577687,-0.228187 -0.594082,-0.209679 -0.07694,0.08685 -0.281627,1.220788 -0.381848,2.115485 -0.04885,0.436229 -0.07221,1.023667 -0.07117,1.790827 0.0019,1.561466 0.135036,2.87342 0.463208,4.572363 l 0.143805,0.744465 0.293752,0.02811 c 0.57719,0.05555 2.943091,0.08698 2.9726,0.03922 0.01556,-0.02554 -0.03146,-0.319428 -0.104532,-0.653821 -0.290972,-1.331258 -0.71293,-4.156746 -0.655149,-4.387021 0.03636,-0.14493 0.115114,-0.187897 0.603705,-0.329626 1.087147,-0.315298 2.016649,-0.437799 3.071913,-0.404774 1.120278,0.03532 1.867801,0.218653 2.781425,0.682868 0.636043,0.323151 1.109826,0.671217 1.674394,1.230141 0.713134,0.705942 1.274005,1.47952 1.787482,2.46538 0.264732,0.508246 0.255615,0.536552 -0.298847,0.928972 -1.573055,1.113394 -3.371008,1.923331 -5.29372,2.384736 -0.332425,0.07976 -0.610238,0.149316 -0.61736,0.154548 -0.01276,0.0095 0.614403,1.36153 0.8672,1.869833 l 0.129116,0.259588 0.179882,-0.0301 c 0.348368,-0.05821 1.407752,-0.331003 1.910187,-0.492208 2.329989,-0.747675 4.481249,-1.972394 6.340777,-3.60973 0.425405,-0.374549 0.578537,-0.483899 0.677692,-0.483899 0.07045,0 0.397323,0.06865 0.726372,0.152516 1.14661,0.292281 2.223502,0.474424 3.324598,0.562456 0.707869,0.05697 2.308478,0.05764 2.914792,0 1.197381,-0.110204 1.210899,-0.110271 1.314765,-0.0066 0.171875,0.171878 0.127499,0.327538 -0.248756,0.872721 -2.916636,4.225807 -8.014295,7.650174 -14.00476,9.407714 -2.162056,0.634327 -4.318168,1.019008 -6.670845,1.190107 -0.887476,0.06476 -3.262892,0.06542 -4.163684,0 -0.909313,-0.06476 -2.08315,-0.18782 -2.198034,-0.230474 -0.238081,-0.08831 -1.361663,-1.871799 -1.986924,-3.153861 -1.661321,-3.406317 -2.641072,-7.406814 -2.960436,-12.088071 -0.07036,-1.031381 -0.07118,-3.892316 -0.0013,-4.880013 0.07652,-1.082857 0.256872,-2.716461 0.388342,-3.517567 0.09096,-0.554213 0.101517,-0.69535 0.05526,-0.738188 -0.03146,-0.02878 -0.228121,-0.201634 -0.437027,-0.383386 C 11.738971,67.58988 11.29263,67.173533 10.95602,66.846328 l -0.612026,-0.594842 -0.202961,0.841066 c -0.6884649,2.852954 -0.9775149,5.239986 -0.9801109,8.093985 -0.0013,1.573307 0.03996,2.378402 0.193321,3.760736 0.499349,4.500748 1.8471479,8.834328 4.1355139,13.296885 0.450273,0.878153 1.480042,2.74131 1.564247,2.830264 0.02178,0.02288 1.553658,0.193005 2.332801,0.258866 1.770202,0.149563 3.723124,0.190641 5.314072,0.111705 z m 0.819516,-3.382312 c 3.525473,-0.264811 6.866246,-1.11779 10.162965,-2.59489 3.222598,-1.443808 6.200063,-3.555301 8.231683,-5.837485 0.638268,-0.717004 1.366654,-1.6429 1.320566,-1.678613 -0.0088,-0.0076 -0.237689,0.0066 -0.508552,0.02877 -0.682283,0.05697 -2.829475,0.0098 -3.514505,-0.07748 -1.008103,-0.128123 -1.981685,-0.313276 -2.821869,-0.536553 l -0.381867,-0.101506 -0.222543,0.197772 c -1.970326,1.751006 -4.146403,3.008161 -6.602377,3.814167 -0.65654,0.215434 -1.58983,0.45454 -2.204796,0.564744 -0.411749,0.07388 -0.442927,0.07388 -0.553044,0 -0.114924,-0.0753 -0.387244,-0.606477 -1.056407,-2.060682 -0.147305,-0.320074 -0.271079,-0.584818 -0.275054,-0.588284 -0.004,-0.0066 -0.198619,0.02098 -0.432548,0.05431 -0.233922,0.03333 -0.438348,0.06153 -0.454267,0.0622 -0.04964,0 0.25642,0.776702 0.494457,1.250347 0.380186,0.756505 1.069665,1.784753 1.413004,2.107315 l 0.116186,0.10915 0.524855,-0.126622 c 1.176925,-0.283963 3.178329,-0.933274 4.165424,-1.351322 1.934752,-0.819413 3.594983,-1.845771 4.852501,-2.999777 0.366805,-0.336625 0.388616,-0.340157 1.086375,-0.175287 1.113248,0.263054 2.382891,0.424392 3.350158,0.425768 0.595488,0 0.62157,0.0066 0.727521,0.110794 0.183649,0.183643 0.146219,0.303855 -0.213968,0.687179 -0.865447,0.92092 -2.243808,2.140986 -3.347346,2.96283 -5.26784,3.923118 -11.475857,5.520887 -18.617208,4.791519 -0.464988,-0.04767 -0.859197,-0.10935 -0.909328,-0.142708 -0.191469,-0.127467 -1.369649,-2.310898 -1.977833,-3.665306 -1.217105,-2.71045 -1.932489,-5.326837 -2.276286,-8.325047 -0.08824,-0.769524 -0.100183,-1.098685 -0.100694,-2.775788 -6.07e-4,-1.977159 0.02649,-2.435424 0.245917,-4.163666 0.157175,-1.237857 0.629407,-3.929139 0.828875,-4.7239 0.01837,-0.07325 -0.03452,-0.123545 -0.281769,-0.26782 -1.266223,-0.73904 -2.883935,-2.041973 -3.83574,-3.089448 -2.0709649,-2.279092 -3.2241349,-4.637152 -3.6783569,-7.521564 -0.09814,-0.623147 -0.136847,-2.367674 -0.06868,-3.094548 0.298035,-3.177935 1.657384,-6.23697 3.9567009,-8.903988 0.471356,-0.546758 1.56639,-1.63949 2.0753,-2.07088 l 0.455223,-0.385936 -0.237041,-0.47292 C 11.647207,38.89053 10.463631,35.68179 9.8007711,32.947476 8.8271561,28.931286 8.6088251,24.988477 9.1496981,21.189683 9.8181751,16.494625 11.629555,11.940047 14.604973,7.4729127 c 0.828648,-1.2441371 2.040476,-2.881732 2.170586,-2.9332024 0.332319,-0.1315229 4.642457,-0.1332236 6.095578,0 6.238266,0.5617352 11.560403,2.5634869 16.885026,6.3507697 1.550105,1.102542 3.492387,2.695468 4.796745,3.934046 l 0.348509,0.33093 0.668746,-0.129888 0.668745,-0.129888 -0.09129,-0.117396 C 45.909464,14.472138 44.781447,13.326234 44.191243,12.790855 41.786048,10.609184 39.394124,9.0279006 36.011351,7.3833084 30.963857,4.9293748 27.132532,3.8628034 21.871114,3.4469143 20.743314,3.3578371 18.762851,3.3061038 17.651211,3.3367115 l -1.123393,0.030737 -0.4212,0.5198135 C 11.88752,9.0943511 9.3268141,14.598824 8.3008371,20.666534 c -0.61734,3.650988 -0.638085,6.81486 -0.06601,10.065653 0.560649,3.185719 1.71947,6.654691 3.3606349,10.060159 0.27425,0.569061 0.352,0.771021 0.327061,0.849568 -0.01798,0.05691 -0.337146,0.416283 -0.709222,0.79908 -0.824102,0.847867 -1.3438759,1.442566 -1.9592669,2.241644 -2.493061,3.237319 -3.7257146,6.697464 -3.6034125,10.115097 0.097632,2.728035 0.9547085,5.260914 2.6585145,7.856577 1.111463,1.693186 2.3713159,3.096381 4.4351459,4.939728 0.435131,0.388617 0.424242,0.330213 0.253969,1.361664 -0.300285,1.818952 -0.441502,3.70069 -0.441036,5.876939 4.7e-4,2.183697 0.109474,3.740587 0.397446,5.676869 0.644559,4.333913 2.06468,8.290389 3.942436,10.983633 0.332496,0.476901 0.212379,0.427468 1.297406,0.533997 1.590347,0.156116 3.579077,0.171033 5.3258,0.03988 z m 0.08009,-1.498559 c 3.520484,-0.20987 6.585079,-0.992925 9.544559,-2.438765 2.170826,-1.060485 4.422844,-2.641436 6.206081,-4.356797 l 0.549734,-0.528775 -0.646353,-0.05631 c -0.752719,-0.0658 -1.793423,-0.230256 -2.452555,-0.387483 l -0.463077,-0.110404 -0.298029,0.274107 c -0.163916,0.15075 -0.564835,0.474746 -0.890927,0.720071 -1.746391,1.313663 -3.946034,2.365317 -6.659964,3.184142 -0.950595,0.286782 -2.233652,0.612421 -2.413082,0.612421 -0.13151,0 -0.187945,-0.04055 -0.41844,-0.302213 -0.866618,-0.982992 -1.552866,-2.13132 -2.006028,-3.356817 -0.163727,-0.442699 -0.173138,-0.456819 -0.284975,-0.427649 -0.246427,0.06409 -2.920161,0.0301 -3.715341,-0.04776 -1.30604,-0.1276 -1.671354,-0.189017 -1.757443,-0.295291 -0.08071,-0.09966 -0.452227,-1.57703 -0.636738,-2.532029 -0.33882,-1.753617 -0.478073,-3.231761 -0.476634,-5.059083 0.0019,-2.345371 0.265629,-4.234434 0.883675,-6.3284 0.151379,-0.51288 0.173641,-0.557943 0.306911,-0.621512 0.140986,-0.06723 0.155322,-0.06345 0.764272,0.210855 2.95687,1.331121 5.327082,2.083568 7.822843,2.483433 0.585216,0.09372 1.846219,0.248659 2.024211,0.248659 0.03264,0 0.33727,0.258008 0.676992,0.573375 3.424787,3.179377 6.536994,4.866668 9.92999,5.383612 0.903302,0.137609 2.654637,0.170501 3.603328,0.0677 1.544527,-0.167424 3.225384,-0.578474 4.718029,-1.153749 l 0.352157,-0.135773 -0.620788,-0.322628 c -0.794461,-0.413016 -1.492356,-0.80876 -2.501157,-1.418304 l -0.805875,-0.486915 -0.447706,0.08647 c -1.082099,0.20902 -2.582983,0.257552 -3.648815,0.117854 -2.950481,-0.38659 -5.828086,-1.928566 -8.118428,-4.350325 l -0.440236,-0.46554 h -0.239815 c -0.66647,0 -2.676259,-0.217003 -3.916419,-0.422888 -5.587799,-0.927601 -10.88936,-3.41594 -14.559195,-6.833508 l -0.4788,-0.445908 -0.09772,0.213537 c -0.05376,0.117461 -0.25521,0.594566 -0.447701,1.060161 l -0.349985,0.846626 0.411633,0.388355 c 0.996924,0.940477 2.002947,1.705938 3.08874,2.350211 0.241215,0.143164 0.479755,0.31262 0.530101,0.376584 0.105565,0.134204 0.118043,0.02681 -0.15862,1.362186 -0.247748,1.195544 -0.530191,2.853151 -0.649784,3.813314 -0.225696,1.812085 -0.246578,2.163816 -0.245879,4.1413 6.08e-4,1.666885 0.01281,2.006852 0.09842,2.742421 0.41867,3.596635 1.355516,6.58177 3.103339,9.888289 0.272398,0.515301 0.785749,1.434446 0.863577,1.546227 0.014,0.02032 1.53023,0.159638 2.068618,0.190384 0.93287,0.05356 2.431596,0.05498 3.299294,0 z m -0.550182,-7.835061 c 2.475219,-0.153172 4.520894,-0.678937 6.446994,-1.657011 0.568505,-0.288691 1.542239,-0.870822 1.790831,-1.070635 l 0.111929,-0.08992 -0.159966,-0.303011 c -0.731533,-1.385667 -1.898959,-2.577342 -3.092503,-3.156738 -0.804454,-0.390521 -1.377476,-0.522888 -2.411033,-0.556834 -0.971974,-0.03209 -1.618517,0.04444 -2.613428,0.30791 l -0.352502,0.09353 0.02956,0.295813 c 0.08303,0.830599 0.379718,2.633726 0.609303,3.703108 0.07331,0.341467 0.133288,0.629038 0.133288,0.639113 0,0.02355 0.819464,-0.03798 0.845226,-0.06409 0.01085,-0.01045 -0.03368,-0.196148 -0.09898,-0.411781 -0.245735,-0.811561 -0.581298,-2.39782 -0.641736,-3.033524 -0.04126,-0.434201 0.05363,-0.49633 1.037142,-0.678539 0.540827,-0.100205 1.492675,-0.09777 1.969919,0.0066 1.249081,0.268865 2.205582,1.021107 2.886217,2.269764 0.206487,0.378804 0.219489,0.482475 0.07985,0.636682 -0.26948,0.297579 -1.4084,0.914387 -2.240682,1.213467 -1.812839,0.651466 -4.24834,0.927396 -6.951485,0.787565 -1.119395,-0.05764 -1.33526,-0.0923 -1.405705,-0.223932 -0.06128,-0.114515 -0.384138,-1.793309 -0.491311,-2.554913 -0.169566,-1.204968 -0.232059,-2.088932 -0.23264,-3.290624 -6.54e-4,-1.561078 0.116827,-2.604889 0.453731,-4.028226 0.184223,-0.778281 0.257565,-0.817652 0.949358,-0.510068 2.806264,1.247864 5.035685,1.841515 7.472363,1.989911 l 0.430154,0.02615 0.599576,0.495156 c 2.765448,2.283758 5.459331,3.868251 8.047376,4.733452 3.937505,1.316217 7.853622,1.16389 11.876581,-0.462136 0.696573,-0.281475 1.674075,-0.736091 1.645128,-0.765004 -0.03872,-0.03855 -1.043204,-0.472002 -1.094302,-0.472002 -0.02851,0 -0.200666,0.06153 -0.382574,0.136697 -1.560753,0.645123 -3.440072,1.150872 -5.098835,1.37206 -0.855416,0.114126 -3.098421,0.112949 -3.872666,0 -1.759777,-0.261211 -3.196863,-0.706008 -4.790474,-1.482664 -1.813545,-0.883897 -3.90292,-2.382513 -5.754292,-4.127301 L 28.35306,72.0987 27.772293,72.04311 c -2.699942,-0.257748 -5.891146,-1.166766 -8.952914,-2.550143 -0.476157,-0.215106 -0.493633,-0.219422 -0.527532,-0.129626 -0.08091,0.214257 -0.393895,1.532231 -0.496733,2.091744 -0.483835,2.632287 -0.477582,5.452534 0.01851,8.358344 0.223792,1.310776 0.549866,2.693567 0.642271,2.723648 0.02754,0.0095 0.343051,0.04833 0.70114,0.08774 1.360217,0.149307 2.670869,0.186709 3.893155,0.111106 z m 3.114377,-2.193107 c 0.3709,-0.09391 0.940477,-0.275873 1.265727,-0.404384 0.60027,-0.237207 1.382651,-0.651723 1.459185,-0.773047 0.07086,-0.112303 -0.228154,-0.552837 -0.690649,-1.017518 -0.332869,-0.334403 -0.505255,-0.468536 -0.793036,-0.617064 -0.801079,-0.413405 -1.753492,-0.503926 -2.843287,-0.270185 l -0.224217,0.04776 0.02936,0.230285 c 0.08384,0.657097 0.427033,2.154602 0.611976,2.670227 0.04859,0.135443 0.09774,0.273175 0.10926,0.306144 0.02695,0.07701 0.198253,0.04966 1.075669,-0.172533 z m 31.366204,-2.801692 c 2.630315,-0.339691 4.830605,-1.641381 6.862264,-4.059804 0.119444,-0.142249 0.209272,-0.263243 0.199605,-0.268998 -0.0097,-0.0065 -0.292234,-0.0065 -0.627941,0.0065 l -0.610378,0.01504 -0.368644,0.410787 c -1.485806,1.655515 -3.193464,2.598417 -5.301499,2.927246 -0.684842,0.106805 -2.257289,0.105039 -3.003437,-0.0066 -2.488849,-0.36173 -5.401888,-1.420781 -8.399995,-3.053731 l -0.520342,-0.283385 -0.431038,0.141986 c -0.237068,0.0781 -0.431036,0.15304 -0.431036,0.166645 0,0.03008 0.94726,0.601296 1.664945,1.004237 0.739191,0.414981 2.484762,1.280695 3.171971,1.573051 1.743885,0.741921 3.509476,1.243349 5.024127,1.426859 0.716843,0.08679 2.095923,0.08641 2.771398,0 z m -0.384221,-1.588139 c 1.924328,-0.18784 3.450909,-0.894181 4.82496,-2.232623 l 0.485601,-0.47305 -0.172209,-0.03073 c -0.09472,-0.01701 -0.326238,-0.03205 -0.514483,-0.03336 -0.849575,-0.0065 -3.330636,-0.258336 -4.680854,-0.475274 -0.374196,-0.06017 -0.736842,-0.107978 -0.805874,-0.106407 -0.101503,0 -0.181188,0.07188 -0.416523,0.363175 -0.373699,0.462586 -1.762401,1.891155 -2.233561,2.297695 -0.19973,0.172333 -0.363149,0.326227 -0.363149,0.341913 0,0.05631 1.354404,0.287125 2.149003,0.366849 0.359977,0.03599 1.271579,0.02687 1.727089,-0.01757 z m -3.943246,-1.214511 c 1.544545,-1.371673 3.059223,-3.173163 4.03938,-4.80415 1.30305,-2.168394 2.046191,-4.384663 2.324344,-6.932061 0.098,-0.897442 0.09712,-2.620451 -0.0019,-3.589116 -0.06836,-0.66906 -0.23979,-1.812609 -0.277952,-1.853943 -0.02498,-0.02681 -0.172908,0.11465 -0.474332,0.454281 l -0.267657,0.301568 0.0915,0.571479 c 0.143419,0.895677 0.189842,1.52785 0.190046,2.588404 6.54e-4,4.002455 -1.419579,7.485751 -4.373885,10.726472 -0.726443,0.79692 -1.861255,1.823461 -2.780791,2.515615 -0.201926,0.151995 -0.368139,0.287628 -0.369362,0.301368 -0.0013,0.01367 0.254655,0.108049 0.56861,0.20948 0.548177,0.17711 0.574383,0.181297 0.660368,0.105951 0.04925,-0.04311 0.351448,-0.31112 0.671564,-0.595348 z m -2.189504,-0.35762 c 0.727803,-0.546038 1.453343,-1.161271 2.043588,-1.732884 0.28956,-0.280441 0.526373,-0.522232 0.526247,-0.537274 0,-0.01505 -0.226767,-0.09476 -0.503664,-0.177044 -0.619242,-0.184105 -1.624906,-0.564873 -2.334887,-0.884164 l -0.533084,-0.239763 -0.586189,0.395615 c -0.785114,0.529818 -1.666795,1.039233 -2.410792,1.392795 -0.336781,0.160104 -0.613018,0.302679 -0.61386,0.316936 -0.0046,0.08116 3.624831,1.78318 3.897778,1.827713 0.01465,0 0.246349,-0.160492 0.514863,-0.36193 z m -8.264469,-1.09345 c 2.027061,-0.25899 4.135193,-1.089265 6.216139,-2.448249 l 0.552638,-0.360886 -0.103753,-0.07829 c -0.0571,-0.04317 -0.218782,-0.133223 -0.359377,-0.20039 l -0.255628,-0.122236 -0.484267,0.312948 c -0.726561,0.469453 -0.975578,0.612355 -1.654815,0.949828 -3.163802,1.571733 -6.181706,1.711824 -9.261042,0.42995 -1.174862,-0.489073 -2.329602,-1.19103 -3.588665,-2.181539 L 33.31111,69.392651 h -0.530243 -0.530251 l 0.537249,0.519355 c 1.121998,1.084687 2.498469,2.033143 3.823626,2.634642 1.969155,0.89378 4.014953,1.205027 6.137868,0.933806 z m 23.181514,-0.843815 c 0.905289,-0.08423 2.641478,-0.340415 2.673621,-0.394437 0.0258,-0.04382 0.201446,-0.54133 0.201446,-0.571152 0,-0.02093 -0.0655,-0.01896 -0.145504,0.0065 -0.557413,0.161674 -2.33352,0.410919 -3.473304,0.487504 -2.165864,0.145388 -4.94612,-0.07227 -7.417991,-0.580896 -0.238906,-0.04905 -0.477485,-0.08928 -0.530179,-0.08914 -0.06824,0 -0.158285,0.09117 -0.312921,0.316412 -0.119411,0.173905 -0.207218,0.326029 -0.195127,0.338127 0.108208,0.10824 3.590589,0.499017 5.090787,0.571285 0.742592,0.03598 3.415614,-0.01766 4.109172,-0.08228 z M 41.447276,72.152541 c -0.01026,-0.0085 -0.240273,-0.203596 -0.511133,-0.43296 -0.645253,-0.54643 -1.510683,-1.396325 -2.187067,-2.147856 -0.299174,-0.332438 -0.574175,-0.600911 -0.611107,-0.596595 -0.03695,0.0065 -0.470094,0.05886 -0.962576,0.12047 -0.858712,0.107913 -1.490232,0.169521 -2.383756,0.232568 -0.227617,0.0157 -0.402639,0.04709 -0.388938,0.06945 0.04349,0.07037 1.053832,0.771086 1.519112,1.053556 1.54479,0.937926 3.087531,1.493121 4.633779,1.667678 0.350147,0.03989 0.923995,0.06148 0.891686,0.034 z m 1.542978,-0.100064 c 0.249173,-0.03925 0.469133,-0.0864 0.488785,-0.105102 0.01969,-0.01896 -0.111293,-0.152582 -0.291003,-0.297446 -1.303634,-1.051004 -3.143261,-2.862305 -4.270569,-4.204807 -0.926312,-1.103197 -1.876763,-2.53968 -2.435064,-3.680418 l -0.245284,-0.501172 -0.180036,0.01896 c -0.09902,0.01046 -0.316748,0.0314 -0.483831,0.04643 l -0.303796,0.02681 0.210599,0.388029 c 0.115826,0.213404 0.410953,0.720464 0.655842,1.12674 1.453488,2.411492 3.181678,4.532732 5.001709,6.139194 0.362169,0.319684 1.345346,1.11366 1.379034,1.11366 0.01131,0 0.224433,-0.03205 0.473614,-0.07116 z m 1.821353,-0.459905 c 0.574522,-0.194896 1.125531,-0.431651 1.743263,-0.749111 0.653455,-0.335707 1.544593,-0.884101 1.544593,-0.950419 0,-0.0255 -0.339311,-0.269715 -0.754024,-0.543161 -0.804454,-0.530406 -1.498385,-1.029423 -2.164777,-1.556691 -0.226401,-0.179136 -0.432712,-0.3257 -0.458466,-0.3257 -0.02577,0 -0.394562,0.100261 -0.819562,0.222758 -0.827489,0.238651 -2.295528,0.584037 -2.869468,0.675206 l -0.350684,0.05559 0.484999,0.489205 c 0.893146,0.900975 3.076223,2.810311 3.21324,2.810311 0.02924,0 0.223118,-0.05755 0.430886,-0.128121 z m 9.639612,-0.190253 c 0.144604,-0.171745 0.255415,-0.317853 0.246238,-0.324655 -0.0091,-0.0065 -0.248383,-0.0792 -0.531558,-0.160953 -2.411945,-0.696595 -4.897623,-1.947532 -7.174113,-3.610438 -0.316845,-0.231456 -0.599779,-0.420793 -0.628753,-0.420793 -0.08722,0 -0.837886,0.278545 -0.837886,0.310919 0,0.04186 1.198015,0.929817 1.877546,1.391748 1.71584,1.166441 3.549848,2.111233 5.218619,2.688339 0.643396,0.222496 1.364646,0.435967 1.477432,0.437209 0.05657,6.55e-4 0.186401,-0.11406 0.352475,-0.311376 z m 17.717446,-0.06475 c 2.598426,-0.744075 4.796372,-1.599398 7.203177,-2.803183 3.668041,-1.834519 6.657685,-3.949546 9.418243,-6.662998 2.467577,-2.425488 4.309671,-4.860722 5.895972,-7.794316 0.464291,-0.858658 1.206388,-2.438177 1.206084,-2.567083 0,-0.02682 -0.138113,-0.400846 -0.306776,-0.831714 C 91.886313,41.227202 85.536137,34.604624 76.931836,31.224531 73.357603,29.820487 69.556171,29.009702 65.307871,28.745348 c -0.360324,-0.02224 -0.69642,-0.06277 -0.746886,-0.08987 -0.108888,-0.05821 -0.108623,-0.05755 -0.255308,-0.743161 -1.227887,-5.739513 -4.882664,-9.982974 -10.09747,-11.723968 -1.587843,-0.530081 -3.001247,-0.774096 -4.748885,-0.819876 -2.473951,-0.06475 -4.657022,0.341136 -7.05769,1.312155 -0.485379,0.196336 -0.761617,0.285609 -0.828254,0.267624 -0.055,-0.01504 -0.251091,-0.160234 -0.435772,-0.323216 C 35.850177,11.959145 31.311069,9.5634795 26.005092,8.6382418 24.251501,8.3324234 21.91097,8.1442627 19.898506,8.1473364 h -0.855271 l -0.394954,0.5377989 c -0.612913,0.8345909 -1.186251,1.6945587 -1.684331,2.5264037 -0.497399,0.830732 -1.381912,2.564729 -1.724225,3.380223 -2.427423,5.782625 -2.808742,11.980486 -1.166538,18.960419 0.173223,0.736227 0.483013,1.857998 0.513123,1.857998 0.01452,0 0.144211,-0.236755 0.288166,-0.526093 0.515301,-1.035636 1.122379,-2.018034 1.791086,-2.898538 0.395209,-0.520336 1.61123,-1.793446 2.062227,-2.159042 l 0.22181,-0.179854 -0.09802,-0.643946 c -0.259815,-1.706788 -0.341259,-2.900044 -0.310972,-4.556014 0.02381,-1.30058 0.08009,-1.919869 0.260142,-2.861523 0.208154,-1.088546 0.593344,-2.344194 0.761635,-2.48278 0.112943,-0.09294 0.495059,-0.103204 1.210979,-0.0327 0.44918,0.04447 1.778345,0.250945 1.88996,0.293783 0.03519,0.01374 0.09195,-0.08861 0.157035,-0.282339 0.05604,-0.166906 0.111595,-0.326616 0.123367,-0.35487 0.02439,-0.05886 -0.565338,-0.206277 -1.236628,-0.309612 -0.654652,-0.100784 -1.757011,-0.161411 -2.332729,-0.128252 l -0.519519,0.03008 -0.206814,0.677365 c -0.772538,2.530393 -1.101731,5.15987 -0.97355,7.776593 0.04651,0.949502 0.134944,1.943151 0.229809,2.582388 0.02648,0.17848 0.03597,0.362978 0.02099,0.410003 -0.01491,0.0471 -0.216598,0.2395 -0.448146,0.427661 -0.878737,0.714057 -1.732335,1.750478 -2.127819,2.583566 -0.150163,0.316282 -0.303314,0.433154 -0.490062,0.373835 -0.15807,-0.05036 -0.21648,-0.197055 -0.401382,-1.009344 -1.843546,-8.098696 -0.34234,-15.621728 4.491161,-22.5067638 0.426858,-0.6079743 0.571363,-0.7817465 0.68076,-0.818307 0.153832,-0.051665 2.075558,0.00912 2.86077,0.089799 3.224292,0.3325026 6.277422,1.1647398 9.346489,2.5477898 3.257249,1.467876 6.475223,3.60514 9.154338,6.080073 0.301267,0.278284 0.579087,0.505948 0.617386,0.505948 0.03832,0 0.148017,-0.0399 0.243837,-0.08889 0.544169,-0.277565 2.13852,-0.87017 3.000946,-1.115296 0.899521,-0.255721 1.962503,-0.469584 2.95487,-0.594567 0.627078,-0.07901 2.917302,-0.07894 3.492118,0 2.255849,0.31007 4.088504,0.990706 5.820204,2.161657 2.717684,1.837659 4.751115,4.676094 5.972456,8.33689 0.270347,0.810327 0.572002,1.925623 0.700136,2.58847 l 0.0574,0.297185 0.653157,0.03008 c 7.014162,0.320338 13.112533,2.150998 18.024221,5.410622 5.327116,3.53542 9.289702,8.685413 12.24977,15.920546 0.145005,0.354477 0.263649,0.702152 0.263649,0.772721 0,0.07056 -0.09368,0.304379 -0.208098,0.519616 -4.187305,7.874237 -11.057899,14.056009 -19.356725,17.416284 -0.883454,0.357682 -2.890712,1.037205 -3.676854,1.244725 l -0.475754,0.125572 -0.07273,0.230606 c -0.0881,0.279461 -0.08852,0.289861 -0.01179,0.289861 0.03345,0 0.451535,-0.111837 0.929007,-0.248592 z m -8.14287,-0.243883 c 0.661283,-1.623205 1.135356,-3.492191 1.362748,-5.37249 0.09658,-0.798621 0.110226,-3.056943 0.02323,-3.850265 -0.269606,-2.459628 -0.827997,-4.570535 -1.868867,-7.064957 -0.345921,-0.829031 -0.836184,-1.884223 -0.876788,-1.887167 -0.01567,0 -0.114629,0.164159 -0.219774,0.367362 -0.558021,1.078017 -1.315228,2.183829 -2.557063,3.734112 -0.02616,0.0327 0.0075,0.32171 0.09126,0.783448 0.116408,0.641983 0.172386,1.021836 0.252973,1.716729 0.01144,0.09849 0.04061,0.572069 0.06495,1.052314 0.175237,3.465507 -0.677203,6.910085 -2.428556,9.813463 l -0.288891,0.478872 0.228774,0.04971 c 0.469356,0.101895 2.041025,0.356112 2.646403,0.428119 1.025865,0.12191 2.017054,0.188031 2.727886,0.181882 l 0.66844,-0.0065 z m 1.504484,0.375472 c 0.136287,-0.02093 0.163017,-0.05298 0.306602,-0.366971 1.379819,-3.019532 1.73236,-6.469473 1.062256,-10.395277 -0.700232,-4.102323 -2.626608,-8.670633 -5.559834,-13.184988 -0.423051,-0.651074 -1.452912,-2.121894 -1.487516,-2.124378 -0.02375,0 -0.31648,0.713794 -0.314537,0.768731 6.28e-4,0.01766 0.219639,0.370305 0.486693,0.783514 2.436915,3.770278 4.07534,7.032319 5.037265,10.029027 1.525657,4.752875 1.461502,9.327595 -0.193233,13.779097 -0.128152,0.344732 -0.243854,0.662389 -0.257132,0.705816 -0.02228,0.07266 0.0079,0.07697 0.372994,0.05363 0.218428,-0.01374 0.464326,-0.03598 0.546442,-0.04839 z m 1.806394,-0.216938 c 0.541653,-0.09045 1.698755,-0.327859 1.721628,-0.35317 0.02765,-0.03074 0.208788,-0.788811 0.301221,-1.260357 0.218774,-1.116146 0.341837,-2.284677 0.341837,-3.245822 0,-0.692931 -0.01496,-0.676449 0.895418,-0.986454 5.033906,-1.71444 8.689736,-3.632543 11.886635,-6.236577 0.83247,-0.678085 2.562734,-2.384286 3.231273,-3.186242 1.090568,-1.308296 2.073817,-2.746481 2.898501,-4.239733 l 0.165608,-0.299801 -0.299428,-0.685149 c -1.214355,-2.778393 -2.781577,-5.239722 -4.687765,-7.362137 -2.804916,-3.12313 -6.495795,-5.442733 -10.932098,-6.870519 -0.368361,-0.118572 -0.674955,-0.210397 -0.68132,-0.203987 -0.0062,0.0065 0.07026,0.222038 0.170368,0.47933 0.100067,0.25729 0.359769,1.001692 0.577107,1.654205 l 0.39517,1.186452 0.48477,0.191497 c 2.931519,1.158068 5.457919,2.888271 7.638706,5.23155 0.725957,0.780046 0.927183,1.033281 0.927183,1.166766 0,0.140614 -0.581994,1.281351 -1.035227,2.029088 -0.38929,0.642311 -0.89489,1.327067 -1.312899,1.778077 -0.192616,0.207847 -0.287875,0.344013 -0.266323,0.380573 0.0184,0.0314 0.121786,0.172727 0.229627,0.314256 1.009449,1.324646 2.563905,3.952618 2.563905,4.334564 0,0.11707 -0.08293,0.223805 -0.52606,0.676712 -2.925885,2.990625 -6.32123,5.023179 -10.897965,6.523757 -0.870635,0.285478 -0.963403,0.295486 -1.108908,0.120209 -0.03776,-0.04512 -0.09884,-0.42328 -0.161908,-1.000844 -0.41712,-3.820311 -1.258859,-6.771628 -2.624159,-9.201107 l -0.271527,-0.483122 0.249623,-0.994303 c 0.324957,-1.294365 0.460284,-2.048316 0.620458,-3.456678 0.08818,-0.775402 0.07333,-2.95184 -0.02535,-3.715929 -0.252281,-1.953483 -0.700875,-3.480157 -1.481682,-5.042342 -0.799683,-1.599988 -1.706097,-2.840659 -3.089922,-4.229202 -0.72498,-0.727465 -1.66562,-1.570035 -1.706817,-1.528832 -0.0087,0.0085 0.0052,0.226159 0.0308,0.483318 0.02564,0.257095 0.05788,1.336158 0.07167,2.397889 l 0.02505,1.930399 0.285008,0.320991 c 0.686844,0.773637 1.236315,1.590766 1.73393,2.578594 0.700179,1.389917 1.040933,2.774798 1.091406,4.435545 0.04833,1.589851 -0.178054,3.092978 -0.731038,4.854378 l -0.203815,0.649177 0.342778,0.649178 c 1.637823,3.101874 2.810147,6.379219 3.355066,9.379458 0.693127,3.816256 0.397663,7.456123 -0.846212,10.425101 -0.111741,0.266707 -0.203163,0.493128 -0.203163,0.503135 0,0.03793 0.223016,0.01439 0.858811,-0.09189 z M 55.447687,70.119203 c 1.456281,-2.074805 2.285247,-4.197614 2.61775,-6.703677 0.06586,-0.496401 0.08945,-0.93433 0.09043,-1.678929 0.0013,-0.943943 -0.08628,-2.197433 -0.176551,-2.528954 l -0.03643,-0.133746 -0.467021,0.449244 c -0.606968,0.583842 -1.443926,1.319415 -2.151461,1.890831 -0.602363,0.486456 -0.620898,0.513926 -0.621545,0.921444 -4.45e-4,0.25814 -0.156049,1.269513 -0.269567,1.751654 -0.407001,1.728764 -1.194811,3.399451 -2.339021,4.960263 -0.122596,0.167233 -0.214073,0.312882 -0.203281,0.323674 0.117075,0.117069 2.94553,1.10882 3.237483,1.135177 0.02466,0 0.168272,-0.171941 0.319213,-0.386981 z m 16.879645,-0.03008 c 8.500492,-2.539876 16.258321,-8.601309 20.889897,-16.321785 0.7877,-1.313071 1.152474,-2.009991 1.109918,-2.120455 -0.295333,-0.766905 -0.912903,-2.162643 -1.41519,-3.198279 -2.814825,-5.80401 -6.370016,-9.991356 -11.055332,-13.021157 -1.668786,-1.079193 -3.700565,-2.091481 -5.73066,-2.855242 -3.404017,-1.280697 -7.687885,-2.102011 -11.707553,-2.244587 -0.824325,-0.02944 -1.049076,-0.06808 -1.115854,-0.192871 -0.02236,-0.04186 -0.09338,-0.32727 -0.157813,-0.634397 -0.649574,-3.096248 -1.775997,-5.645346 -3.438288,-7.780712 -0.444561,-0.571088 -1.566914,-1.713003 -2.093208,-2.129742 -1.47643,-1.168926 -3.03857,-1.941647 -4.812684,-2.380623 -1.051424,-0.260168 -1.696599,-0.339697 -2.966236,-0.36553 -0.621754,-0.01242 -1.130463,-0.01047 -1.130463,0.0065 0,0.01504 0.137651,0.214059 0.305891,0.441853 0.16824,0.22786 0.538963,0.746953 0.823833,1.153622 l 0.517936,0.739301 0.552872,0.07979 c 4.742823,0.684429 8.00164,3.515801 9.596363,8.337739 0.191458,0.578871 0.470919,1.614375 0.539152,1.99776 0.0259,0.145454 0.07295,0.193067 0.416681,0.421254 1.033435,0.685934 2.350033,1.748972 3.274355,2.643668 1.572698,1.522225 2.772262,3.144712 3.670206,4.964122 1.263728,2.560609 1.798894,5.096299 1.733883,8.215438 -0.03768,1.806657 -0.252888,3.472047 -0.683371,5.287468 l -0.07008,0.295551 0.20451,0.34591 c 0.996489,1.685467 1.77506,4.357258 2.152394,7.38634 0.03654,0.293195 0.0729,0.539563 0.08073,0.547477 0.04675,0.04643 1.513525,-0.604247 2.359227,-1.047212 1.744897,-0.913858 3.7731,-2.33216 5.182033,-3.623714 l 0.234858,-0.215301 -0.213596,-0.492476 c -0.256757,-0.591978 -0.618851,-1.28249 -0.971437,-1.852465 L 78.150629,52.05662 77.72033,52.499455 c -0.805555,0.829031 -1.672949,1.523468 -2.797635,2.239746 -0.572767,0.364746 -0.712197,0.417395 -0.874949,0.33028 -0.10748,-0.05755 -0.929851,-0.982661 -1.240027,-1.39502 -0.779654,-1.03642 -1.315575,-2.144784 -1.556103,-3.218288 -0.357981,-1.597698 -0.04076,-3.396181 0.897232,-5.086749 0.361769,-0.65199 0.372192,-0.661474 0.692582,-0.627988 0.344529,0.03598 0.733854,0.168475 1.219479,0.414909 1.117174,0.566902 2.147515,1.379127 3.540047,2.790756 l 0.758638,0.768994 0.08171,-0.103727 c 0.168581,-0.214126 0.880882,-1.282528 1.108943,-1.663296 l 0.236892,-0.39555 -0.285966,-0.291365 c -1.768192,-1.801752 -4.423581,-3.543858 -7.156119,-4.694863 -0.395373,-0.166513 -0.740026,-0.328317 -0.765918,-0.359513 -0.02589,-0.0314 -0.117852,-0.325243 -0.20437,-0.65356 -0.720472,-2.733465 -1.662543,-4.671841 -3.070349,-6.317415 -0.264625,-0.309349 -0.308866,-0.438583 -0.21202,-0.61955 0.0895,-0.167232 0.220101,-0.174557 1.012028,-0.05691 6.631528,0.985538 12.267473,4.080543 16.785108,9.217588 1.526951,1.736351 2.983128,3.855105 4.184251,6.088246 0.446231,0.829621 1.154207,2.283437 1.227209,2.519994 0.0239,0.0773 -0.05427,0.265598 -0.324893,0.783513 -3.089583,5.911401 -8.844481,10.999525 -15.454481,13.66386 -0.939863,0.378807 -2.377719,0.878607 -3.029051,1.052902 l -0.365202,0.09764 -0.03098,0.32086 c -0.04798,0.496923 -0.276051,1.828176 -0.417279,2.436215 -0.09238,0.397708 -0.112137,0.54846 -0.07184,0.54846 0.03055,0 0.354611,-0.08941 0.720182,-0.198626 z m -20.817458,-1.37959 c 1.113295,-1.509014 1.884662,-3.132807 2.270382,-4.779296 0.217749,-0.929489 0.269234,-1.423337 0.270712,-2.59671 0.0019,-1.746031 -0.204833,-2.898932 -0.848293,-4.723967 -0.138776,-0.393587 -0.263237,-0.750877 -0.276558,-0.793977 -0.03721,-0.120405 -0.08735,-0.09823 -0.390317,0.172726 l -0.28075,0.251142 0.198958,0.476387 c 0.720838,1.726017 1.031496,3.30815 0.983739,5.009967 -0.04408,1.569577 -0.358131,2.810249 -1.086498,4.291924 -0.31763,0.646103 -0.997757,1.69894 -1.496326,2.316268 -0.176231,0.21818 -0.314269,0.402155 -0.306748,0.408825 0.02603,0.02288 0.640565,0.331653 0.664842,0.333877 0.01341,0 0.146983,-0.164027 0.296857,-0.367166 z m -17.110268,-0.03467 c 1.187415,-0.06345 3.218438,-0.269979 3.282539,-0.334072 0.01602,-0.01635 -0.482639,-0.694632 -0.510461,-0.694632 -0.0084,0 -0.323261,0.03924 -0.699713,0.08705 -2.643342,0.3361 -5.492829,0.31988 -8.049258,-0.04579 -4.542053,-0.649833 -8.790829,-2.340794 -12.119385,-4.823379 -1.066363,-0.79535 -2.08589,-1.710843 -2.858514,-2.566951 -0.241084,-0.267102 -0.451292,-0.485673 -0.467138,-0.485673 -0.01583,0 -0.157958,0.264876 -0.315819,0.588681 l -0.287015,0.58868 0.460926,0.440743 c 2.132324,2.039095 5.037155,3.853926 8.170748,5.104865 4.080257,1.628831 8.810424,2.38481 13.39309,2.140599 z m 15.659946,-0.430867 c 0.607949,-0.68855 1.391861,-1.87232 1.77448,-2.679705 0.303236,-0.639759 0.72212,-1.826082 0.664979,-1.883243 -0.0104,-0.01046 -0.228887,0.118966 -0.485542,0.287506 -1.370161,0.899535 -3.308988,1.936285 -4.619149,2.469963 -0.141587,0.05755 -0.257394,0.116283 -0.257348,0.130214 4.44e-4,0.07567 2.519562,1.746225 2.765885,1.83406 0.0069,0 0.07742,-0.06899 0.156695,-0.158795 z m -9.212951,-0.527335 c 3.876295,-0.666312 8.012569,-2.375522 11.398854,-4.710429 l 0.47479,-0.327336 0.02891,-0.276321 c 0.01589,-0.151994 0.02891,-0.413078 0.02891,-0.580179 v -0.303856 l -0.615601,0.392279 c -4.132257,2.633008 -8.065909,4.319458 -12.206689,5.23338 l -0.353634,0.0781 0.264093,0.300977 c 0.145251,0.165533 0.284237,0.301045 0.308859,0.301045 0.02459,6.6e-5 0.326827,-0.04839 0.671565,-0.107651 z m -5.954513,-0.497511 c 0.988377,-0.07594 1.697356,-0.155852 1.767598,-0.199279 0.0359,-0.02224 -0.05429,-0.188618 -0.281743,-0.520205 -0.404974,-0.590381 -1.208389,-1.916075 -1.573488,-2.596383 l -0.266714,-0.496988 -1.927055,-0.02878 c -1.059874,-0.0157 -1.984694,-0.04185 -2.055145,-0.05755 -0.118978,-0.02681 -0.125703,-0.02158 -0.09448,0.0779 0.06662,0.211835 0.870209,1.819214 1.156826,2.313912 0.16117,0.278155 0.456974,0.756046 0.657352,1.061929 l 0.364314,0.556241 0.723336,-0.0242 c 0.397833,-0.01374 1.08597,-0.05233 1.529204,-0.0864 z m -3.111572,0.04774 c 0,-0.01176 -0.109293,-0.190254 -0.242883,-0.397316 -1.59352,-2.470155 -2.94899,-5.997271 -3.764727,-9.796391 l -0.07356,-0.342575 -0.428141,-0.206995 c -0.235472,-0.113865 -0.436379,-0.198757 -0.446458,-0.188619 -0.05533,0.05559 0.366107,2.03746 0.66099,3.109001 0.595947,2.165517 1.371258,4.172565 2.51452,6.509434 0.60683,1.240409 0.633363,1.285406 0.767887,1.302411 0.208097,0.02615 1.012374,0.03531 1.012374,0.01112 z m -1.92514,-0.0915 c 0,-0.01242 -0.08962,-0.188814 -0.199134,-0.391756 -0.298344,-0.552776 -0.882919,-1.819084 -1.324588,-2.869435 -0.215898,-0.513404 -0.409658,-0.948521 -0.43056,-0.966834 -0.02093,-0.01831 -0.22941,-0.09882 -0.463339,-0.178809 -1.939337,-0.663369 -3.80655,-1.633081 -5.295473,-2.750143 -2.084634,-1.564015 -3.809023,-3.593431 -4.935123,-5.807999 -0.161581,-0.317788 -0.308167,-0.576713 -0.325739,-0.575405 -0.07776,0.0065 -1.063072,1.335111 -1.640884,2.213783 -0.651191,0.990313 -1.90557,3.140787 -1.90557,3.266817 0,0.08064 0.668084,0.812485 1.351271,1.480171 3.645839,3.563349 8.770135,5.836712 14.766199,6.550834 0.184682,0.02224 0.350894,0.04251 0.369363,0.04579 0.01844,0 0.03355,-0.0065 0.03355,-0.01701 z m 9.880187,-0.675207 c 1.086924,-0.219619 3.045896,-0.753035 3.07218,-0.836487 0.0046,-0.01504 -0.116322,-0.167561 -0.269213,-0.338325 -0.615449,-0.687436 -1.325692,-1.608161 -1.790104,-2.320649 -0.133792,-0.205231 -0.269494,-0.373183 -0.301567,-0.373183 -0.03205,0 -0.277604,0.04905 -0.54562,0.109483 -0.629865,0.141529 -1.443522,0.28005 -2.248015,0.382731 -0.352795,0.04513 -0.651251,0.09162 -0.663245,0.103662 -0.02558,0.0255 0.22338,0.529885 0.51254,1.038319 0.404098,0.710458 1.539321,2.350407 1.627018,2.350407 0.01773,0 0.290443,-0.05232 0.606026,-0.115958 z m 4.164958,-1.188741 c 0.142511,-0.05298 0.306539,-0.113538 0.36451,-0.13499 0.100857,-0.03727 0.08793,-0.05755 -0.300246,-0.463372 -1.831484,-1.915741 -3.107145,-4.042409 -3.921808,-6.53814 -0.136284,-0.417525 -0.267951,-0.841393 -0.292594,-0.941849 l -0.0448,-0.182668 -0.475595,0.124395 c -0.261574,0.06848 -0.480853,0.130542 -0.487288,0.137932 -0.01504,0.01701 0.447963,1.234523 0.669308,1.759567 0.612566,1.4529 1.4511,2.964661 2.321944,4.186038 0.572684,0.803198 1.730629,2.149036 1.849032,2.149036 0.0321,0 0.175033,-0.04317 0.317537,-0.09594 z m 1.89325,-0.753102 c 0.783461,-0.334398 2.860874,-1.356104 3.604047,-1.772516 0.797724,-0.446956 2.004485,-1.176971 2.735649,-1.654861 l 0.64598,-0.422168 -0.02229,-0.169063 c -0.18325,-1.389845 -0.461076,-2.466293 -0.930943,-3.606833 l -0.106715,-0.259056 -0.354968,0.275079 c -2.346757,1.818561 -5.570448,3.683295 -8.391322,4.853855 -0.160059,0.06645 -0.30682,0.135708 -0.326138,0.15402 -0.120589,0.113996 2.286116,2.962635 2.448489,2.898082 0.02695,-0.01046 0.341161,-0.144144 0.698209,-0.296531 z M 10.955893,62.57753 c 1.33855,-3.293173 3.493362,-7.061948 5.276663,-9.228969 0.179247,-0.217787 0.325903,-0.412292 0.325903,-0.432109 0,-0.07215 -0.261507,-0.646823 -0.298119,-0.655064 -0.08939,-0.02028 -1.352424,1.561009 -2.078789,2.602467 -1.450446,2.079643 -2.75162,4.555621 -3.735184,7.107728 l -0.254654,0.660754 0.239697,0.285347 c 0.13183,0.156964 0.251738,0.272596 0.266459,0.25703 0.01471,-0.0157 0.130837,-0.284303 0.258024,-0.597184 z m 25.167388,0.03532 c 0.940661,-0.08267 1.7152,-0.176911 2.440009,-0.296857 0.511925,-0.08469 1.368092,-0.251863 1.489759,-0.290907 0.04126,-0.01308 0.02047,-0.09007 -0.07473,-0.276782 -0.228356,-0.447609 -0.172294,-0.426352 -0.788241,-0.29908 -0.641179,0.132502 -1.784349,0.299801 -2.61909,0.383254 -0.401037,0.03989 -1.229573,0.06016 -2.462389,0.06016 -1.825702,-4.57e-4 -2.357301,-0.02681 -3.709127,-0.183059 -0.328665,-0.03793 -0.605431,-0.06148 -0.615052,-0.05166 -0.01773,0.01766 0.312745,0.916999 0.351025,0.955259 0.115375,0.115368 4.674575,0.115172 5.987835,-4.58e-4 z M 27.396984,61.456352 27.183833,60.818358 26.583269,60.54949 C 24.345197,59.547405 22.578794,58.355982 21.010414,56.790528 18.258427,54.043785 16.800302,50.736681 16.545066,46.662937 l -0.05376,-0.85807 -0.507701,0.477761 -0.5077,0.477693 0.119417,0.626811 c 0.390638,2.050408 1.258892,4.824096 1.665291,5.319971 0.05704,0.06958 0.103727,0.175735 0.103727,0.235774 0,0.06017 0.113343,0.335577 0.25187,0.61216 1.802471,3.599123 4.607937,6.256723 8.36301,7.922242 0.490912,0.217723 1.505155,0.613273 1.578313,0.615431 0.0325,0 -0.0289,-0.242443 -0.160541,-0.636358 z m -17.4856359,0.04512 c 0.0952,-0.25245 0.3302459,-0.81726 0.5223049,-1.255256 l 0.349213,-0.796322 -0.106696,-0.210987 c -0.42406,-0.838711 -0.8535789,-2.128106 -1.0322039,-3.098732 -0.171424,-0.931518 -0.216238,-2.132621 -0.112249,-3.008414 0.234033,-1.971012 1.1561069,-4.042612 2.6066259,-5.856202 0.553299,-0.69182 1.389741,-1.583703 1.995105,-2.127388 l 0.53252,-0.478216 0.03114,-0.633548 c 0.228351,-4.644503 1.937127,-8.668018 5.039596,-11.866423 2.372612,-2.445894 5.447231,-4.315206 8.918996,-5.422523 l 0.658328,-0.209939 0.278952,-0.364811 c 1.443748,-1.887887 3.308587,-3.798532 5.267723,-5.397147 0.3743,-0.305426 0.680551,-0.568406 0.680551,-0.584364 0,-0.0157 -0.176291,-0.171092 -0.39175,-0.344602 -1.922191,-1.548386 -4.286136,-2.796971 -7.316982,-3.864785 l -0.47825,-0.168476 -0.296002,0.396398 c -0.579905,0.77658 -1.458472,2.192005 -1.455123,2.344326 5.68e-4,0.02486 0.297722,0.119292 0.660368,0.209089 0.853852,0.211444 1.668469,0.507125 2.450197,0.889333 0.743702,0.363633 1.646142,0.944074 1.720058,1.106336 0.04265,0.09359 0.0308,0.184694 -0.06781,0.521775 -0.592806,2.026799 -1.667842,3.575184 -3.13409,4.514093 -0.702048,0.449506 -1.700019,0.822883 -2.659462,0.99489 -0.794356,0.142444 -2.189204,0.205689 -2.57312,0.116676 -0.303667,-0.07044 -0.305388,-0.07797 -0.274759,-1.210192 0.05245,-1.939293 0.296211,-3.813771 0.680347,-5.231812 0.0624,-0.230345 0.103977,-0.428381 0.09237,-0.439957 -0.08423,-0.08423 -2.309492,-0.372595 -2.45231,-0.317787 -0.08023,0.03073 -0.348695,0.884101 -0.504017,1.602015 -0.255976,1.183117 -0.340175,2.063359 -0.34045,3.559227 -3.4e-4,1.493187 0.105513,2.772118 0.36088,4.362819 0.04964,0.309088 0.07928,0.605685 0.06591,0.659118 -0.01334,0.05364 -0.231135,0.267232 -0.483926,0.475143 -1.509237,1.241325 -2.840809,3.052037 -3.932311,5.347376 -0.196474,0.413143 -0.379318,0.795221 -0.406309,0.848982 -0.07148,0.142378 -0.280632,0.21903 -0.422005,0.154608 -0.139821,-0.06344 -0.187741,-0.17835 -0.444613,-1.06389 -0.620276,-2.138374 -1.079783,-4.40402 -1.317773,-6.497596 C 12.351743,26.791669 12.344778,24.29437 12.600452,22.0248 13.10173,17.574736 14.726904,13.223622 17.307316,9.4231941 17.82064,8.6671489 18.444077,7.8184972 18.632087,7.6198059 L 18.76979,7.4743531 h 0.934303 c 5.587538,0 9.774026,0.9096726 13.88964,3.0181589 2.541759,1.302148 5.273634,3.21214 7.731373,5.405453 l 0.388977,0.347152 0.406406,-0.176257 c 0.335283,-0.145453 0.741564,-0.28914 1.961732,-0.693912 0.06566,-0.02158 -0.43625,-0.498557 -1.377642,-1.308558 C 38.207967,10.197157 33.72806,7.6740898 28.937567,6.3129484 26.984246,5.7579493 25.060984,5.4085087 22.861597,5.2090331 21.936174,5.125055 19.204319,5.0769869 17.977081,5.1229565 L 17.09835,5.1556595 16.589871,5.8335491 C 13.015876,10.598523 10.829667,15.38907 9.9558991,20.370392 c -0.451265,2.572641 -0.546104,5.446787 -0.266584,8.078747 0.4458689,4.198269 1.8484359,8.759321 4.0282699,13.09964 0.204052,0.406276 0.242267,0.597772 0.143425,0.718765 -0.03081,0.03793 -0.267506,0.24735 -0.526052,0.465856 -0.62097,0.524915 -1.522225,1.406661 -2.033968,1.989914 -2.2875239,2.607371 -3.5814569,5.438938 -3.9221349,8.582996 -0.06909,0.637535 -0.03257,2.470616 0.06056,3.039545 0.264007,1.612871 0.639962,2.760411 1.351867,4.126391 0.277924,0.533286 0.868253,1.486843 0.920876,1.487496 0.01433,0 0.103949,-0.206145 0.199155,-0.458531 z m 61.4535229,-0.0157 c 4.16504,-1.426738 7.145245,-3.219072 9.966185,-5.993936 l 0.504166,-0.495879 -0.308891,-0.585215 c -1.150921,-2.180494 -2.734167,-4.314944 -4.547806,-6.13115 -1.156697,-1.158329 -1.84205,-1.724774 -2.746986,-2.270291 -0.412761,-0.248853 -0.973351,-0.505031 -1.207637,-0.551859 -0.159336,-0.03205 -0.169081,-0.01961 -0.47454,0.595024 -0.998769,2.009991 -1.027004,3.920638 -0.08593,5.81199 0.357638,0.718766 0.946129,1.557216 1.517979,2.162704 l 0.308918,0.327074 0.425316,-0.27619 c 1.037877,-0.674032 2.390306,-1.815291 2.872047,-2.423526 l 0.136817,-0.172727 -0.187062,-0.24251 c -0.102901,-0.133353 -0.212724,-0.263765 -0.244066,-0.289794 -0.04305,-0.03598 -0.182261,0.07612 -0.568223,0.456242 -0.893359,0.879849 -2.121175,1.8699 -2.316009,1.867612 -0.143286,0 -0.198937,-0.04448 -0.437773,-0.3344 -0.484629,-0.588681 -0.933057,-1.449694 -1.124448,-2.158976 -0.106803,-0.395746 -0.118011,-0.512815 -0.116962,-1.221181 8.8e-4,-0.685737 0.01584,-0.846168 0.118661,-1.285537 0.232744,-0.994432 0.317598,-1.176838 0.547323,-1.176838 0.107374,0 1.361629,0.704312 1.812177,1.017585 0.55824,0.38816 1.145411,0.889595 1.770606,1.511958 1.358371,1.35218 2.316624,2.790496 3.115841,4.676811 0.224635,0.530148 0.257431,0.695809 0.161458,0.815495 -0.08816,0.10994 -0.858486,0.786521 -1.402137,1.231449 -1.54464,1.264215 -3.126407,2.285594 -4.876965,3.149224 -1.025779,0.506012 -2.274629,1.028704 -2.458044,1.028704 -0.05845,0 -0.151175,-0.03598 -0.205945,-0.08064 -0.08839,-0.07162 -0.111504,-0.176128 -0.205461,-0.929031 -0.419629,-3.362565 -1.104294,-5.729846 -2.184836,-7.554031 -0.119101,-0.20111 -0.20628,-0.40379 -0.20628,-0.479526 0,-0.0722 0.0597,-0.399015 0.132502,-0.726286 0.299522,-1.344855 0.487287,-2.59187 0.587082,-3.898924 0.06682,-0.874813 0.03072,-2.82784 -0.06665,-3.613119 -0.362533,-2.922083 -1.339248,-5.422456 -3.016812,-7.722962 -0.775534,-1.063497 -2.027217,-2.395534 -3.113173,-3.31299 -0.511235,-0.431978 -1.905449,-1.499727 -1.958295,-1.499792 -0.02204,-6.6e-5 0.02851,0.401174 0.116645,0.9255 0.01955,0.116349 0.11629,0.215695 0.533548,0.548065 2.968973,2.36473 4.975016,5.206829 5.95336,8.434469 0.483124,1.59384 0.673864,2.974667 0.672217,4.866281 -0.0017,1.919607 -0.158068,3.167144 -0.652364,5.203623 l -0.225252,0.928051 0.271887,0.493914 c 1.275385,2.316791 2.189636,5.566929 2.559865,9.100126 0.03037,0.289338 0.07026,0.526027 0.08867,0.526027 0.0184,0 0.362816,-0.112753 0.765268,-0.25062 z M 42.965656,61.078067 c 0.910497,-0.389533 3.070199,-1.468531 3.918604,-1.95767 3.378319,-1.94773 6.071235,-4.117236 7.840797,-6.316695 0.373254,-0.463961 0.739196,-0.977561 0.739196,-1.037468 0,-0.02224 -0.08809,-0.166055 -0.195767,-0.318964 l -0.195773,-0.278027 -0.382247,0.571482 c -1.521278,2.274411 -4.333931,4.721808 -7.57596,6.592101 -1.335497,0.770433 -3.30399,1.692597 -4.689735,2.196974 -0.289331,0.105298 -0.526059,0.211445 -0.526059,0.23584 0,0.05691 0.309939,0.612617 0.341612,0.612617 0.01309,0 0.339514,-0.135054 0.725332,-0.300193 z m -9.238458,0.0875 c -0.192464,-0.459448 -0.815475,-2.369439 -0.963845,-2.95485 -0.03277,-0.1293 -0.0732,-0.235054 -0.08986,-0.235054 -0.01667,0 -0.320082,-0.03924 -0.674284,-0.08783 -1.094302,-0.149313 -2.239506,-0.409743 -3.139991,-0.714187 -0.215452,-0.07285 -0.391743,-0.115042 -0.391743,-0.09379 0,0.262654 0.946756,3.73784 1.045087,3.836204 0.031,0.03074 1.416483,0.186329 2.111253,0.236755 0.369363,0.02682 0.752153,0.05493 0.850648,0.06213 0.0985,0.0078 0.428035,0.01701 0.732316,0.02093 0.511115,0.0072 0.550729,0 0.520415,-0.07084 z m 1.679751,0.06083 c 0,-0.0098 -0.05996,-0.158665 -0.133281,-0.330933 -0.231791,-0.544665 -0.539035,-1.392795 -0.806306,-2.225686 -0.142229,-0.443229 -0.290952,-0.866311 -0.330488,-0.940216 -0.03957,-0.07384 -0.06122,-0.167951 -0.0482,-0.209024 0.01302,-0.0412 -0.0189,-0.241464 -0.07093,-0.445254 -0.856266,-3.35367 -0.973184,-7.271234 -0.331103,-11.094357 0.05964,-0.355066 0.09963,-0.654345 0.08889,-0.66507 -0.01072,-0.01046 -0.270104,-0.0065 -0.576379,0.01243 l -0.556856,0.03205 -0.03008,0.252385 c -0.542376,4.545812 -0.299363,8.375868 0.785841,12.385255 0.194303,0.71785 0.697497,2.268786 0.93327,2.876498 l 0.143301,0.369325 h 0.466178 c 0.256394,0 0.466171,-0.0078 0.466171,-0.01766 z m 1.410277,-0.09483 c 0.606707,-0.05166 2.313691,-0.320468 2.564101,-0.403725 0.03996,-0.01309 -0.0013,-0.135773 -0.139429,-0.411704 -0.24525,-0.490578 -0.550428,-1.212025 -0.904748,-2.138832 -0.255577,-0.668537 -0.281071,-0.715495 -0.382025,-0.703592 -0.05951,0.0072 -0.390291,0.06083 -0.735109,0.119161 -0.344817,0.05886 -0.929076,0.139307 -1.298355,0.179464 -0.369272,0.04055 -0.745579,0.08731 -0.836226,0.104707 l -0.164819,0.0314 0.282031,0.850681 c 0.303086,0.914185 0.47313,1.377687 0.694391,1.892987 0.077,0.179267 0.159749,0.377956 0.183896,0.441462 0.04009,0.105493 0.06024,0.113276 0.233406,0.09 0.104224,-0.01374 0.33052,-0.03727 0.502886,-0.05232 z m 19.385746,-1.348122 c 2.612767,-2.312474 4.507232,-4.618932 5.742566,-6.991379 l 0.337774,-0.648654 -0.189685,-0.382469 -0.189685,-0.38247 -0.302221,0.578871 c -1.502788,2.878264 -3.676879,5.50205 -6.394902,7.717599 -0.559368,0.455982 -0.526733,0.387375 -0.475039,0.998881 l 0.02865,0.33865 0.363117,-0.297512 c 0.19971,-0.163635 0.685462,-0.582795 1.079449,-0.931517 z m -14.024224,0.123146 c 1.924023,-0.708039 4.001821,-1.735566 5.696858,-2.81731 0.940706,-0.600323 2.187262,-1.501166 2.669601,-1.929154 l 0.190011,-0.168672 -0.21686,-0.376976 c -0.45288,-0.787371 -1.516998,-2.312474 -1.746173,-2.502662 -0.05429,-0.04512 -0.09756,-0.02813 -0.240306,0.09516 -1.095426,0.944336 -1.72448,1.434 -2.559026,1.992202 -1.492807,0.998424 -3.346004,1.90548 -5.065337,2.479183 l -0.565876,0.188816 0.08798,0.319291 c 0.254248,0.922687 1.032608,2.938369 1.134682,2.938369 0.01184,0 0.288303,-0.09823 0.614447,-0.218246 z M 26.804824,59.486844 C 26.624316,58.843813 26.300348,57.368416 26.156281,56.533301 L 26.034869,55.829514 25.784936,55.664047 C 25.019984,55.15751 24.01773,54.226582 23.394189,53.443331 22.545373,52.377088 21.709598,50.858198 21.213996,49.481165 L 21.1135,49.201899 20.84228,49.436364 c -0.997312,0.862126 -2.403449,2.28821 -2.403449,2.437587 0,0.09529 0.331815,0.780439 0.626424,1.293451 1.295504,2.255836 3.092181,4.081002 5.448959,5.535274 0.648503,0.400129 2.250682,1.243026 2.362794,1.243026 0.04094,0 0.021,-0.126944 -0.07218,-0.458858 z m 28.166954,-0.485936 c 0.872859,-0.710132 2.641471,-2.420845 2.641471,-2.555049 0,-0.108566 -0.242078,-0.883578 -0.447322,-1.432036 -0.310769,-0.830537 -1.191809,-2.59599 -1.290912,-2.586769 -0.01661,0 -0.141019,0.15546 -0.276446,0.342117 -0.360076,0.496137 -1.017318,1.254863 -1.645762,1.899855 l -0.55135,0.56592 0.2202,0.553365 c 0.391731,0.984426 0.714934,2.090173 0.884736,3.026987 0.04572,0.252386 0.09363,0.458859 0.106396,0.458793 0.01275,0 0.174307,-0.122955 0.358989,-0.273183 z m -43.502671,-0.942504 0.29385,-0.566575 -0.149476,-0.418375 c -1.48683,-4.161446 0.680498,-9.00137 5.735293,-12.80762 0.802559,-0.604378 1.792158,-1.263626 2.63465,-1.755186 0.369356,-0.215565 0.690884,-0.410396 0.714508,-0.43296 0.03433,-0.0327 0.192235,-0.671545 0.201129,-0.813467 0.0032,-0.05363 -0.302588,0.113799 -1.27381,0.69666 -5.70668,3.424828 -8.858815,7.134151 -9.402323,11.064336 -0.08524,0.616412 -0.09709,1.757346 -0.0242,2.331508 0.06742,0.531127 0.198128,1.169316 0.339121,1.65584 0.169097,0.583513 0.583907,1.671407 0.621507,1.629942 0.0087,-0.0098 0.148134,-0.272464 0.309756,-0.584103 z m 21.02615,-0.854866 c -0.0019,-0.0781 -0.122758,-0.575795 -0.144772,-0.597837 -0.0099,-0.0098 -0.237938,-0.04709 -0.506674,-0.08312 -3.456449,-0.460366 -6.272247,-2.205351 -8.13689,-5.042478 -0.551239,-0.838777 -1.084819,-1.922876 -1.369768,-2.783039 -0.05506,-0.166185 -0.111745,-0.302221 -0.125971,-0.302221 -0.0142,0 -0.135536,0.08287 -0.269579,0.184039 -0.295341,0.223021 -0.298578,0.177894 0.08086,1.127396 1.624521,4.065306 4.512941,6.436576 8.929794,7.331075 0.988743,0.20026 1.545673,0.260234 1.542997,0.166186 z m 3.22515,-0.0781 c 4.845915,-0.552055 8.87158,-2.30358 12.270424,-5.338677 l 0.287715,-0.256898 -0.275648,-0.275735 -0.27565,-0.275733 -0.395915,0.335446 c -3.293892,2.790431 -7.309128,4.514093 -11.980348,5.142996 -0.44842,0.06017 -0.749812,0.120536 -0.749661,0.149573 1.38e-4,0.02681 0.01831,0.119162 0.04042,0.205362 0.0221,0.0862 0.05259,0.212098 0.06777,0.279788 0.03361,0.150032 0.0013,0.14892 1.010895,0.034 z m -22.993148,-1.26369 c 0.834892,-1.346752 1.872412,-2.759821 2.809311,-3.826263 0.241928,-0.275407 0.439867,-0.531519 0.439867,-0.569191 0,-0.03727 -0.04016,-0.175734 -0.08923,-0.306865 -0.258246,-0.690249 -0.769667,-2.628887 -0.903289,-3.424107 -0.03008,-0.179004 -0.06921,-0.325439 -0.08699,-0.325439 -0.01779,0 -0.06924,0.04709 -0.114387,0.1051 -0.04513,0.05755 -0.251916,0.314714 -0.459481,0.570827 -1.940496,2.394749 -2.811875,5.147704 -2.393507,7.561944 0.09908,0.571741 0.251999,1.100776 0.296434,1.025498 0.02047,-0.03466 0.246014,-0.399799 0.501258,-0.811504 z m 19.428002,-0.303006 c -0.223125,-1.180044 -0.402024,-2.855766 -0.469303,-4.396043 -0.07172,-1.642042 0.02021,-3.755236 0.232967,-5.35385 0.02741,-0.206016 0.04252,-0.381947 0.03355,-0.390906 -0.06219,-0.06213 -2.327812,0.314189 -3.30278,0.548654 -0.604404,0.145388 -0.539853,0.03727 -0.671265,1.127003 -0.162496,1.347864 -0.20113,2.024052 -0.200959,3.517435 3.33e-4,1.433148 0.02498,1.883505 0.183374,3.327837 l 0.07528,0.686391 0.338793,0.169847 c 0.916757,0.459775 2.181829,0.853494 3.36082,1.045971 0.06154,0.0098 0.194446,0.02093 0.295294,0.02419 l 0.183374,0.0065 z m 2.8947,0.266447 c 0.713951,-0.08725 2.394782,-0.385675 2.622609,-0.465661 0.03565,-0.01242 0.03296,-0.133943 -0.0097,-0.435444 -0.421292,-2.976956 -0.435687,-6.38347 -0.03656,-8.651342 0.03512,-0.199474 0.06384,-0.37632 0.0639,-0.393063 2.69e-4,-0.126879 -2.284109,-0.52897 -3.006118,-0.529165 l -0.208011,-6.6e-5 -0.07092,0.391756 c -0.373672,2.064275 -0.52912,4.261119 -0.437425,6.181968 0.06514,1.364541 0.228362,2.788925 0.435679,3.801933 0.03453,0.168801 0.05311,0.171678 0.646555,0.09915 z m 23.725222,-0.767098 c 0.0032,-0.123609 -0.520827,-1.39842 -0.889922,-2.16375 -0.805369,-1.669969 -1.729744,-3.083757 -2.993154,-4.577794 -0.479108,-0.566575 -1.857757,-1.98115 -1.930823,-1.98115 -0.02275,0 -0.131851,0.165599 -0.242484,0.368017 l -0.201143,0.367949 0.434522,0.471482 c 2.652773,2.878265 4.197601,5.265819 5.031833,7.776722 l 0.181018,0.544797 0.304021,-0.365726 c 0.167212,-0.201176 0.304968,-0.399409 0.306132,-0.440547 z m -19.945753,0.0065 c 0.237924,-0.07344 0.293318,-0.107259 0.27498,-0.167886 -0.13939,-0.460298 -0.372064,-1.919801 -0.47961,-3.008349 -0.07934,-0.803067 -0.06711,-2.688665 0.02302,-3.54994 0.252373,-2.411363 0.843513,-4.461902 1.916911,-6.649394 0.197095,-0.401632 0.351221,-0.736816 0.34249,-0.744795 -0.02628,-0.0242 -0.706182,-0.203791 -0.770975,-0.203791 -0.116265,0 -0.74473,1.479191 -1.123994,2.6455 -0.674011,2.072776 -0.951804,3.835222 -0.995781,6.317871 -0.03068,1.730203 0.05604,3.244645 0.2795,4.883548 0.03623,0.265531 0.06583,0.502285 0.06583,0.526092 0,0.06664 0.141673,0.05166 0.46761,-0.04904 z m 1.600928,-0.515431 c 2.397026,-0.890511 4.425263,-2.054398 6.336323,-3.63614 0.25192,-0.208501 0.447269,-0.396531 0.434104,-0.417785 -0.04212,-0.06822 -0.879804,-0.773442 -1.250317,-1.052642 -1.591251,-1.199206 -3.570922,-2.20515 -5.631606,-2.861653 -0.364125,-0.116022 -0.672592,-0.200391 -0.685484,-0.187506 -0.04225,0.04252 -0.237859,1.263495 -0.314692,1.964929 -0.09081,0.829099 -0.103074,2.76512 -0.02236,3.529993 0.106585,1.010196 0.327871,2.424508 0.436046,2.78703 0.03323,0.111313 0.08279,0.102353 0.697993,-0.126226 z m 11.140726,-0.276715 0.272896,-0.25742 -0.372443,-0.559774 c -2.160651,-3.24713 -5.08078,-5.679094 -8.789339,-7.320088 -1.067977,-0.472593 -2.675041,-1.055649 -2.737447,-0.993256 -0.05095,0.05101 -0.153218,0.538125 -0.119646,0.56991 0.02007,0.01896 0.187637,0.07835 0.372318,0.13185 1.794158,0.51942 3.853561,1.480303 5.37249,2.506652 2.156512,1.457281 4.043757,3.439149 5.308215,5.574386 0.195406,0.330017 0.369859,0.601171 0.387674,0.602545 0.01779,0 0.155192,-0.11321 0.305282,-0.254805 z m 8.221573,-0.570826 c 0.66078,-0.991948 1.669929,-2.822935 1.670621,-3.031174 4.52e-4,-0.128056 -2.002333,-3.457265 -2.238557,-3.721161 -0.01805,-0.02028 -0.208814,0.289728 -0.423848,0.688745 -0.460553,0.854669 -0.75728,1.350153 -1.238107,2.06761 -0.193845,0.289273 -0.35245,0.538845 -0.35245,0.554542 0,0.0157 0.169311,0.312947 0.376256,0.660491 0.554176,0.930732 1.464051,2.807958 1.657855,3.420446 l 0.03237,0.102353 0.07898,-0.102353 c 0.04343,-0.05625 0.240031,-0.344014 0.436876,-0.639499 z m -32.529543,0.01504 c -0.166252,-1.469969 -0.212144,-3.839147 -0.100888,-5.208593 0.20585,-2.53386 0.684571,-4.953724 1.535488,-7.761746 0.122112,-0.403005 0.213641,-0.741067 0.203385,-0.751335 -0.02511,-0.02486 -0.850765,0.159972 -0.889555,0.199344 -0.0703,0.07142 -0.573887,1.919933 -0.813669,2.986766 -0.295236,1.313529 -0.581055,3.2642 -0.708359,4.834496 -0.117272,1.446424 -0.04572,5.336126 0.103551,5.626772 0.0418,0.08142 0.669981,0.539759 0.699431,0.510265 0.0099,-0.0098 -0.0032,-0.206016 -0.02936,-0.435969 z m 26.130253,-1.349171 c 0.377484,-0.455851 1.145477,-1.567812 1.198755,-1.735631 0.04113,-0.129628 -0.661591,-0.995415 -2.24364,-2.764335 l -0.183288,-0.204834 -0.347676,0.533221 c -0.457595,0.701825 -0.897711,1.321377 -1.360912,1.915879 l -0.377413,0.484364 0.178357,0.18718 c 0.457667,0.480311 1.25993,1.522422 1.784493,2.317969 l 0.293601,0.445254 0.339703,-0.361083 c 0.186832,-0.198625 0.509937,-0.566639 0.71802,-0.817913 z M 25.79393,52.302108 c -0.06095,-1.147603 -0.03435,-3.525871 0.05121,-4.570141 0.04303,-0.525242 0.07085,-0.962321 0.06186,-0.971347 -0.02707,-0.02681 -1.062542,0.278678 -1.446464,0.427074 -0.394713,0.152517 -1.385058,0.640151 -1.544606,0.760491 l -0.101261,0.07639 0.123845,0.375929 c 0.380834,1.156106 1.133457,2.549556 1.895676,3.509915 0.334352,0.421252 0.907487,1.052118 0.955846,1.052118 0.02197,0 0.02368,-0.288226 0.004,-0.660428 z m 48.966522,-0.05232 c 0.742897,-0.58855 2.01469,-1.776769 2.01469,-1.882197 0,-0.106015 -1.463175,-1.378669 -1.9923,-1.732818 -0.387275,-0.259253 -1.144521,-0.698425 -1.166435,-0.676516 -0.0103,0.01047 -0.06198,0.21877 -0.114963,0.463306 -0.143515,0.662716 -0.145065,1.691354 -0.0035,2.210055 0.156519,0.572854 0.459705,1.180632 0.844945,1.693971 0.120405,0.16043 0.118917,0.160691 0.417393,-0.0758 z M 20.033849,49.258733 c 1.864243,-1.634521 3.355586,-2.49802 5.239821,-3.033986 0.386657,-0.10994 0.71717,-0.215368 0.734457,-0.23427 0.02917,-0.03205 0.13049,-0.736292 0.109658,-0.762452 -0.01753,-0.02224 -0.882727,0.304248 -1.472317,0.55526 -1.211587,0.515823 -3.095628,1.541976 -3.461321,1.885336 -0.08525,0.07998 -0.182549,0.145454 -0.216238,0.145454 -0.08313,0 -1.0561,0.728639 -1.633663,1.223469 -0.660642,0.565922 -1.432664,1.334784 -1.432664,1.426804 0,0.04252 0.03708,0.173903 0.08246,0.291757 0.04532,0.117854 0.09667,0.253694 0.114048,0.301895 0.02681,0.07424 0.128807,-0.01439 0.673101,-0.58358 0.352836,-0.369127 0.921026,-0.916147 1.262658,-1.215687 z m 29.889584,0.45513 c 1.254285,-1.596456 2.490595,-3.665178 3.382878,-5.66052 0.46976,-1.050481 1.057368,-2.574995 1.017428,-2.639613 -0.03519,-0.05691 -0.517354,-0.418505 -0.533293,-0.399932 -0.0083,0.0098 -0.05075,0.168607 -0.09449,0.353301 -0.21548,0.910391 -0.818221,2.482584 -1.302653,3.397814 -0.759934,1.435831 -1.770621,2.933858 -2.946962,4.367922 l -0.354405,0.432108 0.263045,0.265793 c 0.144675,0.146238 0.27584,0.250882 0.291476,0.2327 0.01562,-0.01832 0.140274,-0.175539 0.276971,-0.349573 z M 17.94788,49.398105 c 0.371704,-0.382143 1.38598,-1.242242 2.024942,-1.717124 l 0.570677,-0.42413 -0.03336,-0.292215 c -0.05533,-0.484758 -0.03793,-2.841443 0.02544,-3.441766 0.03211,-0.304052 0.05186,-0.559315 0.04394,-0.567229 -0.02165,-0.02158 -1.021693,0.58515 -1.581041,0.959444 -0.270867,0.181227 -0.789648,0.550617 -1.152849,0.820791 l -0.660368,0.491298 v 0.56821 c 0,0.712421 0.06839,1.600512 0.181286,2.354463 0.103454,0.690838 0.27013,1.499857 0.308998,1.499857 0.01516,0 0.137755,-0.11321 0.272345,-0.251599 z M 57.102037,49.19078 c 0.737588,-1.109213 1.601093,-2.748507 2.05765,-3.906249 0.663409,-1.682262 1.116394,-3.396703 1.406758,-5.324159 l 0.120869,-0.802282 -0.255838,-0.294569 c -0.140712,-0.162066 -0.326042,-0.36141 -0.411848,-0.443162 l -0.156017,-0.148528 -0.05454,0.439565 c -0.08395,0.676516 -0.341999,2.202664 -0.49445,2.924307 -0.588636,2.78631 -1.564776,5.312451 -2.786049,7.209952 l -0.159652,0.248069 0.199476,0.277958 c 0.10971,0.152908 0.206009,0.278022 0.213989,0.278022 0.008,0 0.151829,-0.206538 0.319657,-0.458924 z m 6.529265,-0.481813 c 0.369181,-1.436158 0.500063,-2.520518 0.460928,-3.81848 -0.03459,-1.147017 -0.162505,-1.885337 -0.509606,-2.941377 -0.184515,-0.561344 -0.630864,-1.502801 -0.982719,-2.072646 -1.200236,-1.944067 -3.260357,-3.773681 -5.882071,-5.224162 -0.77312,-0.42766 -0.716404,-0.41929 -0.715965,-0.106341 l 4.44e-4,0.262195 0.54808,0.286917 c 2.377692,1.244595 4.010428,2.626206 5.189941,4.391661 0.663919,0.993714 1.208899,2.323135 1.440719,3.514493 0.156123,0.802282 0.207891,1.381611 0.210065,2.350472 0.0027,1.096329 -0.07228,1.844329 -0.29609,2.963613 l -0.113642,0.568407 0.192491,0.335903 c 0.105878,0.18476 0.206844,0.321646 0.224372,0.304118 0.01752,-0.01766 0.122448,-0.384169 0.233133,-0.814773 z M 48.98047,48.642397 c 0.648838,-0.787567 1.667666,-2.18723 1.640871,-2.254266 -0.01962,-0.04904 -0.691682,-0.638387 -1.111601,-0.974813 -2.255863,-1.80705 -4.601429,-3.119663 -7.204373,-4.03169 -0.538793,-0.188814 -0.698856,-0.229167 -0.729549,-0.184172 -0.09995,0.146697 -0.722304,1.415752 -0.887908,1.810518 -0.290704,0.692996 -0.541363,1.415685 -0.503056,1.450347 0.01923,0.01766 0.206205,0.08731 0.415503,0.155329 2.800652,0.910196 5.480455,2.37356 7.56626,4.131755 0.233929,0.197187 0.438049,0.345321 0.453594,0.329167 0.01556,-0.01634 0.177664,-0.210594 0.360259,-0.432175 z m 7.236478,-0.572134 c 0.339443,-0.568079 0.605561,-1.077035 0.883082,-1.688804 0.246151,-0.542637 0.557994,-1.316275 0.557994,-1.384227 0,-0.04774 -0.631565,-0.858725 -0.996945,-1.279651 -0.574633,-0.661995 -1.749038,-1.816532 -1.786992,-1.75682 -0.01936,0.03073 -0.07896,0.18646 -0.132406,0.346563 -0.168905,0.505948 -0.748803,1.875002 -1.118081,2.639679 l -0.35591,0.737012 0.646706,0.628511 c 0.705822,0.685998 1.116492,1.123536 1.652735,1.760876 0.192012,0.228187 0.367288,0.40366 0.389498,0.389925 0.02224,-0.01374 0.139347,-0.19058 0.260319,-0.393064 z m 6.362153,-0.682728 c 0.26274,-1.810517 0.176081,-3.608802 -0.243735,-5.057843 -0.16378,-0.565268 -0.511495,-1.388807 -0.806005,-1.90901 -0.137488,-0.242772 -0.257087,-0.441463 -0.265779,-0.441463 -0.0087,0 -0.03905,0.146042 -0.06742,0.324589 -0.18771,1.180698 -0.569891,2.789253 -0.912132,3.839082 l -0.153257,0.470107 0.714926,1.007318 c 0.393203,0.554083 0.917941,1.324776 1.166088,1.712739 0.24814,0.387963 0.456877,0.699668 0.463859,0.692671 0.007,-0.0072 0.05353,-0.294177 0.103449,-0.63819 z m -41.08317,-0.737997 0.286491,-0.179659 0.02949,-0.973177 c 0.08022,-2.64864 0.489786,-4.517429 1.378642,-6.290601 0.542062,-1.081352 1.135871,-1.894492 1.969259,-2.696643 1.171023,-1.127134 2.523767,-1.932817 4.395113,-2.617705 l 0.572566,-0.209547 0.219214,-0.376321 c 0.120574,-0.207062 0.212588,-0.382993 0.204491,-0.391102 -0.02394,-0.0242 -0.925617,0.247938 -1.445437,0.435837 -0.839503,0.303528 -1.452284,0.576777 -2.137557,0.953164 -2.312572,1.270167 -3.924326,3.072311 -4.884463,5.461372 -0.62014,1.543022 -0.957912,3.505401 -0.958469,5.568499 0,0.628315 0.04107,1.495476 0.07109,1.495476 0.0072,0 0.142013,-0.08084 0.299579,-0.179593 z m 1.733374,-0.948325 c 0.825297,-0.404184 1.641662,-0.751793 2.445397,-1.041326 l 0.587418,-0.211644 0.123316,-0.633938 c 0.17391,-0.894108 0.391984,-1.812936 0.631898,-2.662505 0.113406,-0.401567 0.194426,-0.741918 0.180038,-0.756305 -0.05233,-0.05232 -2.159964,0.60091 -3.453205,1.070233 -0.41861,0.151928 -0.768726,0.281752 -0.778045,0.288552 -0.07189,0.05232 -0.322123,1.459898 -0.404745,2.2767 -0.06879,0.680048 -0.113936,2.052372 -0.06675,2.029678 0.02243,-0.01047 0.353018,-0.172531 0.734688,-0.359448 z m 28.061886,-0.341201 0.265427,-0.439369 -0.42876,-0.355262 c -3.422081,-2.835821 -7.326583,-4.608534 -12.318332,-5.592634 -0.80038,-0.157814 -2.200682,-0.390971 -2.219112,-0.36952 -0.01923,0.02224 -0.377591,0.748196 -0.377591,0.764808 0,0.0098 0.146068,0.0314 0.324588,0.04905 0.178521,0.01701 0.667085,0.08064 1.085689,0.141072 4.67903,0.675533 8.809344,2.481537 12.423889,5.432397 0.258553,0.211051 0.576078,0.47946 0.70562,0.596464 0.129534,0.116939 0.24398,0.212687 0.254334,0.212687 0.01034,0 0.138259,-0.197775 0.284248,-0.439434 z m -22.562543,-0.09556 c 0.573043,-0.145649 1.771563,-0.356766 2.55618,-0.45029 1.146827,-0.136756 2.02788,-0.174428 3.092398,-0.132308 1.23585,0.04905 1.944144,0.140286 2.950383,0.3809 0.256086,0.06148 0.474208,0.102746 0.484712,0.09228 0.0446,-0.04447 0.18508,-0.677824 0.156035,-0.703265 -0.04925,-0.04317 -0.905736,-0.209807 -1.576449,-0.306668 -1.055185,-0.152385 -1.780262,-0.19954 -3.022025,-0.196336 -1.243378,0 -1.93506,0.05623 -3.15634,0.243491 -0.536771,0.08221 -1.790921,0.334137 -1.813765,0.364418 -0.0046,0.0065 -0.03328,0.14251 -0.06323,0.302548 -0.03003,0.160039 -0.06534,0.336361 -0.07858,0.391756 -0.03021,0.126814 0.01928,0.128187 0.470708,0.01374 z m 23.602176,-1.949822 c 0.352528,-0.823734 0.850118,-2.429019 0.850118,-2.742621 0,-0.165009 -1.743099,-1.340081 -3.406751,-2.296646 -1.143103,-0.657222 -4.058831,-2.101686 -4.242473,-2.101686 -0.07355,0 -0.919684,0.657483 -1.286398,0.999536 -0.199109,0.18574 -0.511384,0.513599 -0.693946,0.728509 -0.422697,0.497641 -0.985936,1.285471 -0.945166,1.32203 0.01721,0.0157 0.262909,0.103858 0.546084,0.196663 2.175667,0.712813 4.432774,1.805153 6.267906,3.033332 0.590982,0.395485 1.714605,1.23472 2.126616,1.588347 l 0.313392,0.268931 0.129927,-0.251926 c 0.07146,-0.138587 0.224772,-0.473575 0.340691,-0.744469 z m 5.745469,0.481291 c 0.220555,-0.726155 0.277827,-0.581029 -0.558112,-1.414638 -0.846991,-0.84473 -1.378151,-1.320005 -2.255398,-2.018233 -2.009847,-1.59966 -4.288751,-3.062893 -7.274412,-4.670925 l -0.737887,-0.397382 -0.217199,0.08254 c -0.261804,0.09948 -0.762356,0.348853 -0.740375,0.368866 0.0086,0.0078 0.469029,0.232111 1.023066,0.498296 3.329562,1.599661 5.852919,3.219726 7.969194,5.116573 0.763382,0.684233 1.949299,1.945114 2.438013,2.592198 0.0974,0.128971 0.189926,0.234465 0.20561,0.234465 0.0157,0 0.08206,-0.176323 0.1475,-0.391758 z M 15.987594,43.605669 c 0.530486,-0.399604 0.566203,-0.436164 0.589703,-0.604442 0.0138,-0.0985 0.05636,-0.410788 0.09465,-0.693912 0.314942,-2.328891 1.081843,-4.612786 2.174418,-6.475688 0.755461,-1.288087 1.530302,-2.268655 2.666141,-3.373878 2.109127,-2.052372 4.786321,-3.49533 7.909489,-4.263081 l 0.753049,-0.185152 0.292482,-0.443555 c 1.666535,-2.52745 4.054691,-4.879427 7.166767,-7.058221 0.153897,-0.107716 0.279814,-0.211508 0.279814,-0.230605 0,-0.04971 -0.876441,-0.856959 -1.45505,-1.33995 -2.73837,-2.285922 -5.721055,-3.852359 -9.374959,-4.923379 l -0.465581,-0.136492 -0.161209,0.186984 c -1.942954,2.252893 -3.198609,4.987863 -3.737623,8.140945 -0.191216,1.118501 -0.339494,2.740987 -0.340633,3.727113 l -3.99e-4,0.347021 0.391744,-1.29e-4 c 0.21546,-1.32e-4 0.623429,-0.02158 0.906604,-0.0471 2.566901,-0.235054 4.343932,-1.395347 5.419326,-3.5383 0.287838,-0.573572 0.623173,-1.452833 0.624383,-1.63707 0.0013,-0.159253 -1.732661,-1.054602 -2.618744,-1.352376 -0.554573,-0.186395 -1.465575,-0.43309 -1.70068,-0.46056 -0.12788,-0.01504 -0.139508,0 -0.267087,0.311574 -0.153924,0.377499 -0.155879,0.374032 0.256603,0.455197 0.683965,0.134531 2.219113,0.679784 2.860004,1.015688 0.217874,0.114257 0.313568,0.193459 0.355256,0.294112 0.05305,0.128121 0.04343,0.164354 -0.138363,0.519356 -0.499382,0.975269 -1.263621,1.903842 -2.007781,2.439679 -0.639427,0.460364 -1.429284,0.798425 -2.235869,0.956893 -0.618779,0.121581 -0.724816,0.02878 -0.724803,-0.635639 2.8e-5,-3.199518 1.00272,-6.105186 3.043915,-8.820928 0.406027,-0.540218 0.552776,-0.692865 0.666111,-0.692865 0.05153,0 0.401087,0.109482 0.776717,0.243229 3.570679,1.271803 6.064283,2.641051 8.146778,4.473478 0.267506,0.23538 0.346158,0.403659 0.262085,0.560754 -0.02628,0.04905 -0.27442,0.265923 -0.551422,0.481881 -2.139676,1.667874 -4.05284,3.583426 -5.672652,5.679616 -0.228336,0.295484 -0.441808,0.552644 -0.474377,0.57148 -0.03257,0.01896 -0.419638,0.15291 -0.860132,0.298036 -1.512219,0.498165 -3.07231,1.183378 -4.286238,1.882589 -5.2341,3.014888 -8.487752,7.85841 -9.083477,13.522069 -0.0895,0.850876 -0.114303,1.260813 -0.0753,1.244463 0.0174,-0.0072 0.285753,-0.204708 0.596326,-0.438584 z m 13.061909,0.113669 c 0.769804,-0.172727 2.733152,-0.427074 3.296438,-0.427074 0.132247,0 0.240448,-0.0078 0.240448,-0.01701 0,-0.0091 0.08042,-0.323412 0.17871,-0.697837 0.21555,-0.821119 0.51844,-1.785009 0.756705,-2.408092 L 33.697361,39.71027 33.57839,39.67822 c -0.250712,-0.06802 -2.379983,-0.0327 -3.071514,0.05101 -0.368075,0.04447 -0.708288,0.09529 -0.756025,0.112948 -0.06429,0.02354 -0.131726,0.176455 -0.260025,0.588485 -0.174948,0.561866 -0.744016,2.605213 -0.840731,3.018813 -0.02878,0.123086 -0.06312,0.259906 -0.07629,0.303923 -0.01936,0.06475 -0.004,0.07554 0.08037,0.05559 0.05736,-0.01308 0.235263,-0.05363 0.39532,-0.08948 z m 9.290472,-0.46069 c 0.202052,-0.642049 0.584868,-1.62229 0.873238,-2.235889 l 0.214426,-0.456309 -0.297866,-0.06638 c -0.993178,-0.221187 -3.12324,-0.515299 -3.19133,-0.440676 -0.123655,0.135578 -1.097448,3.150206 -1.044989,3.235097 0.0098,0.0157 0.22238,0.04252 0.472358,0.05886 0.512906,0.03336 1.751419,0.214452 2.324448,0.339435 0.2093,0.04579 0.403864,0.08509 0.432359,0.08758 0.02851,0 0.126303,-0.232176 0.217356,-0.521513 z m -4.061977,-0.346957 c 0.831727,-2.835492 1.504736,-4.447709 2.568947,-6.153909 0.38678,-0.62014 1.148579,-1.632755 1.643166,-2.184287 0.224929,-0.250751 0.408958,-0.464091 0.408958,-0.473968 0,-0.0098 -0.224794,-0.05429 -0.499545,-0.09836 l -0.499546,-0.08038 -0.172548,0.197448 c -0.314047,0.359383 -0.958169,1.219219 -1.321848,1.764473 -1.043138,1.563952 -1.943654,3.470673 -2.592681,5.489691 -0.211117,0.656698 -0.510174,1.719868 -0.510174,1.813589 0,0.03989 0.09843,0.06278 0.324582,0.07389 0.58169,0.02944 0.532181,0.05559 0.650689,-0.348199 z M 17.895742,42.249826 c 0.55908,-0.373182 2.183718,-1.347407 2.814451,-1.687691 l 0.454758,-0.245322 0.144329,-0.403464 c 0.81711,-2.284286 2.242089,-4.147646 4.20333,-5.496426 1.425124,-0.980111 3.143057,-1.726737 5.139889,-2.233862 l 0.41657,-0.105754 0.602271,-0.903722 c 2.642807,-3.965633 5.857609,-7.234477 9.196158,-9.350877 2.268556,-1.438053 4.664065,-2.325162 6.661138,-2.466692 0.227768,-0.01635 0.414131,-0.04317 0.414131,-0.05951 0,-0.03925 -0.658523,-0.901628 -1.2068,-1.580825 -0.249226,-0.308761 -0.455562,-0.524457 -0.501742,-0.524457 -0.139364,0 -1.26207,0.302091 -1.923582,0.51759 -0.725469,0.236361 -1.479048,0.530277 -2.221305,0.86631 -0.276825,0.12531 -0.542226,0.227861 -0.58978,0.227861 -0.104891,0 -0.228951,-0.09974 -0.921582,-0.74061 -4.138424,-3.829139 -9.241245,-6.61061 -14.41142,-7.855597 C 24.292155,9.7554413 22.712939,9.5468102 20.587827,9.4697011 l -0.693951,-0.024859 -0.430867,0.6162141 c -2.183632,3.123195 -3.630515,6.293022 -4.42975,9.704769 -0.66978,2.859101 -0.835534,5.924219 -0.485418,8.976517 0.117055,1.020529 0.395261,2.660346 0.515791,3.040265 0.01295,0.04055 0.06987,-0.0065 0.161031,-0.134336 0.520971,-0.728835 1.218376,-1.484225 1.821347,-1.972711 l 0.196533,-0.159188 -0.07389,-0.666835 c -0.139653,-1.26003 -0.171137,-1.83367 -0.171747,-3.129211 -6.54e-4,-1.734717 0.09268,-2.78219 0.393268,-4.405985 0.248683,-1.343482 0.820413,-3.368712 1.004656,-3.558834 0.07001,-0.07227 0.183145,-0.09084 0.746018,-0.122367 1.130018,-0.06344 2.454278,0.04774 3.56578,0.298362 0.269468,0.06083 0.494124,0.110595 0.499232,0.110595 0.0052,0 0.08687,-0.176258 0.181691,-0.391691 0.326147,-0.741067 0.86766,-1.713134 1.378007,-2.473625 0.527055,-0.785344 1.434726,-1.893576 1.62012,-1.978077 0.07951,-0.03597 0.239829,-0.0066 0.751505,0.138262 3.716728,1.053098 6.826587,2.666821 9.657259,5.011211 0.710394,0.588354 1.901182,1.691354 1.975145,1.829548 0.09651,0.180378 0.004,0.325504 -0.394124,0.617785 -0.201202,0.147742 -0.694456,0.510395 -1.09612,0.805879 -2.789619,2.052241 -4.652823,3.943201 -6.266232,6.3596 -0.22349,0.334725 -0.449493,0.626482 -0.502218,0.648326 -0.05272,0.02158 -0.47086,0.130869 -0.92917,0.242379 -5.678773,1.381351 -9.85485,5.166867 -11.559984,10.478927 -0.283307,0.882595 -0.603317,2.295469 -0.683455,3.017504 -0.02649,0.238848 -0.02138,0.280312 0.03073,0.249377 0.0344,-0.02028 0.271423,-0.176585 0.526757,-0.347087 z m 40.764066,-0.748392 c 0.194635,-0.931256 0.352542,-1.876506 0.497367,-2.977284 l 0.106023,-0.805879 -0.186983,-0.173315 c -0.546779,-0.506863 -1.8156,-1.343744 -2.748849,-1.813197 -0.153197,-0.07705 -0.286015,-0.140091 -0.295164,-0.140091 -0.0091,0 -0.02988,0.351077 -0.04604,0.780243 -0.03257,0.86304 -0.162635,2.160023 -0.291306,2.904491 l -0.08359,0.483646 0.40778,0.342573 c 0.662775,0.556831 1.495601,1.315557 1.973222,1.797698 0.245401,0.247676 0.459141,0.435576 0.474987,0.417459 0.01583,-0.01832 0.102498,-0.385413 0.192563,-0.816344 z M 24.639583,40.442841 c 3.50697,-1.188218 6.616424,-1.675199 9.063226,-1.419412 l 0.254035,0.02681 0.16018,-0.352451 c 0.08809,-0.19385 0.147423,-0.366511 0.131838,-0.383713 -0.01556,-0.01701 -0.466916,-0.05623 -1.002948,-0.08731 -1.98459,-0.11406 -4.084169,0.10994 -6.345408,0.676974 -0.707044,0.177303 -1.946884,0.561081 -2.731019,0.845317 l -0.604403,0.219095 -0.189475,0.464549 c -0.104218,0.255525 -0.189842,0.479198 -0.19028,0.497052 -4.38e-4,0.01766 0.165414,-0.03008 0.368557,-0.105753 0.203153,-0.07607 0.69171,-0.247415 1.085697,-0.3809 z m 30.421115,-1.437399 c 0.314178,-1.779908 0.351548,-4.534629 0.08882,-6.547693 -0.151796,-1.163105 -0.511505,-2.909397 -0.599628,-2.911031 -0.02649,-4.58e-4 -0.209161,-0.02944 -0.405891,-0.06409 -0.196734,-0.03466 -0.364588,-0.05625 -0.373031,-0.04774 -0.0085,0.0085 0.04527,0.233615 0.119313,0.500454 0.31661,1.140673 0.497169,2.150343 0.616051,3.444971 0.120739,1.314836 0.04159,3.393303 -0.181307,4.763011 -0.101896,0.626157 -0.117161,0.580965 0.299782,0.888025 0.203145,0.149574 0.372326,0.272922 0.375955,0.274034 0.004,0 0.03061,-0.134009 0.05992,-0.300194 z M 24.908206,38.790663 c 0.745757,-0.24408 2.277681,-0.658399 2.998539,-0.81085 l 0.177978,-0.03794 0.326374,-0.761079 c 0.179508,-0.418636 0.527536,-1.170757 0.773401,-1.671472 0.245866,-0.500717 0.447021,-0.916999 0.447021,-0.925108 0,-0.04186 -0.77486,0.287571 -1.365503,0.580244 -1.467235,0.727137 -2.621876,1.645377 -3.52272,2.801549 -0.251874,0.32328 -0.779366,1.117519 -0.742185,1.117519 0.0065,0 0.414614,-0.131915 0.907095,-0.293131 z m 17.14768,0 c 0.27432,-0.468079 0.971843,-1.329748 1.519654,-1.877291 1.429388,-1.42857 3.016158,-2.280165 5.038786,-2.704232 1.40212,-0.293979 3.25397,-0.336818 4.801368,-0.111051 0.239927,0.03531 0.448146,0.06344 0.462717,0.06344 0.02251,0 -0.02093,-0.674814 -0.04532,-0.704114 -0.0046,-0.0065 -0.238956,-0.04447 -0.52061,-0.08659 -0.744009,-0.110789 -2.854118,-0.110855 -3.601274,0 -2.603878,0.386264 -4.647891,1.380436 -6.616032,3.218093 -0.730472,0.682075 -1.971862,2.139813 -1.89113,2.220716 0.03997,0.03989 0.51099,0.175145 0.634448,0.181882 0.06999,0.0065 0.129666,-0.05166 0.21739,-0.200979 z m -1.319232,-0.542966 c 0.658805,-0.89149 1.560832,-1.872254 2.387686,-2.596186 l 0.263059,-0.23028 -0.173517,-0.07285 C 42.546941,35.068199 41.056279,34.5907 40.074933,34.342828 l -0.368741,-0.09313 -0.305885,0.325373 c -0.637915,0.678608 -0.99822,1.116146 -1.511748,1.835959 -0.348329,0.488223 -0.976917,1.508882 -0.947435,1.538378 0.01026,0.01047 0.433502,0.08875 0.940562,0.174491 0.880457,0.14879 1.694067,0.310986 2.226195,0.443621 0.135429,0.034 0.267278,0.06344 0.292994,0.06638 0.02569,0 0.176814,-0.171092 0.335779,-0.386198 z M 53.672919,37.97844 c 0.131235,-0.741918 0.292111,-3.145105 0.210541,-3.145105 -0.0153,0 -0.245145,-0.02944 -0.510702,-0.06475 -1.70531,-0.229494 -3.282362,-0.190319 -4.713658,0.117136 -0.23393,0.05036 -0.442758,0.102026 -0.464065,0.114976 -0.02133,0.01308 0.14994,0.124982 0.380553,0.248918 1.375098,0.738779 3.466919,1.991221 4.493432,2.690301 0.27086,0.184498 0.505516,0.336688 0.521454,0.338192 0.01596,0 0.05305,-0.133158 0.08245,-0.299409 z m -24.147724,-0.265662 0.229456,-0.0255 0.147278,-0.341267 c 0.26837,-0.621905 1.062412,-2.16617 1.48766,-2.893241 1.599694,-2.735035 3.478019,-5.163924 5.785739,-7.481631 2.190172,-2.199591 4.061047,-3.617827 6.223202,-4.717558 1.757214,-0.893713 3.357319,-1.354207 4.931573,-1.419152 l 0.682453,-0.02812 -0.278592,-0.407192 -0.278599,-0.407256 -0.446575,0.01242 c -1.846979,0.05036 -4.07959,0.777824 -6.166513,2.009795 -5.084389,3.001416 -9.873353,8.724394 -12.708719,15.187328 l -0.262915,0.599276 0.212549,-0.03074 c 0.116905,-0.01701 0.315803,-0.04252 0.442003,-0.05691 z m 5.39136,-0.652121 c 0.552213,-1.011831 1.107956,-1.864081 1.768777,-2.712341 0.204294,-0.262261 0.366066,-0.482207 0.359487,-0.488746 -0.0066,-0.0065 -0.221653,-0.03205 -0.477944,-0.05691 -0.386609,-0.03727 -3.313532,-0.05559 -3.84617,-0.02355 -0.153616,0.0091 -0.166559,0.02615 -0.658217,0.856371 -0.472253,0.797639 -1.570059,2.910768 -1.531075,2.947067 0.0099,0.0091 0.310038,0 0.667085,-0.02682 0.64294,-0.04317 2.149069,-0.01504 2.7534,0.05101 0.172366,0.01896 0.387087,0.03727 0.477159,0.04055 l 0.16376,0.0065 z m 26.040057,-1.869182 c -0.04207,-2.4249 -0.260475,-4.265239 -0.725619,-6.114014 -0.966801,-3.842745 -2.904747,-6.554692 -5.706923,-7.986271 -0.657522,-0.335904 -1.313815,-0.596987 -1.991063,-0.792015 -0.507779,-0.146238 -1.633395,-0.39143 -1.662624,-0.362195 -0.0075,0.0072 0.112753,0.212948 0.2672,0.456571 l 0.280801,0.442964 0.578557,0.193524 c 1.075035,0.359579 1.961405,0.780569 2.7555,1.308886 1.971037,1.311304 3.365233,3.152428 4.227213,5.582297 0.698975,1.970359 1.026605,4.023581 1.088299,6.82016 l 0.03008,1.363167 0.425319,0.368342 c 0.322287,0.279135 0.429434,0.350227 0.442299,0.293392 0.0093,-0.0412 0.0052,-0.749895 -0.009,-1.574808 z m -1.567594,-0.772263 c -0.01596,-0.621775 -0.05841,-1.423861 -0.09431,-1.782394 -0.06181,-0.617524 -0.190778,-1.569183 -0.215139,-1.587496 -0.07508,-0.05624 -1.145963,-0.514253 -1.606633,-0.686784 -0.562299,-0.210658 -1.952681,-0.633088 -2.083496,-0.633088 -0.07397,0 -0.07618,-0.03073 0.02969,0.411311 0.185388,0.773637 0.492645,2.744715 0.49279,3.161259 3.2e-5,0.114844 0.0274,0.162523 0.123165,0.214779 1.564166,0.854277 2.334187,1.31549 2.951192,1.767613 0.192864,0.141332 0.368912,0.258859 0.391233,0.261084 0.02401,0 0.02871,-0.45814 0.01151,-1.126284 z M 44.473029,34.64027 c 0.22162,-0.146631 0.419421,-0.281425 0.439563,-0.299476 0.08117,-0.07293 -2.073364,-0.78397 -3.327279,-1.098094 -0.861884,-0.215891 -2.007493,-0.445909 -2.887715,-0.579786 -1.481088,-0.225179 -3.721927,-0.40451 -4.675104,-0.374032 l -0.466655,0.01504 -0.263772,0.380507 -0.263772,0.380572 1.804925,0.02747 c 2.594276,0.03925 3.773613,0.180902 5.744756,0.690445 0.969856,0.250686 2.859344,0.892342 3.285809,1.115754 0.06404,0.03336 0.136645,0.04905 0.161367,0.03467 0.02473,-0.01439 0.226264,-0.146172 0.447877,-0.292803 z m 1.617351,-0.909084 c 1.102215,-0.506341 2.292847,-0.847344 3.598443,-1.030666 0.725547,-0.101897 2.864366,-0.107258 3.592858,-0.0091 0.570904,0.07697 0.528575,0.161673 0.3729,-0.745841 -0.129547,-0.755194 -0.327735,-1.59299 -0.514693,-2.175719 L 53.002049,29.34017 52.498278,29.3114 c -3.213212,-0.185153 -6.433705,0.538322 -9.14186,2.053745 -0.729857,0.408369 -1.802916,1.123405 -1.756153,1.170167 0.01053,0.01047 0.238133,0.07671 0.505777,0.147155 1.038082,0.272986 3.359556,1.053033 3.484022,1.17069 0.06787,0.06409 0.126879,0.04971 0.500316,-0.121778 z m -4.983239,-1.689262 c 1.459172,-1.132365 3.352199,-2.097172 5.223878,-2.662373 4.154416,-1.254666 8.488537,-0.96847 12.524622,0.82707 0.08091,0.03598 0.07069,-0.06277 -0.06076,-0.587504 L 58.678172,29.153326 58.17929,28.97648 c -3.780306,-1.340343 -7.786089,-1.606332 -11.191479,-0.743094 -1.90652,0.483253 -4.069315,1.497045 -5.805437,2.7213 -0.504064,0.355392 -1.527993,1.15676 -1.506083,1.17867 0.02375,0.02354 0.831968,0.181817 0.96075,0.1879 0.06429,0 0.243355,-0.103336 0.470095,-0.279332 z M 39.10768,31.717139 c 2.439753,-2.073431 5.142774,-3.503113 7.894897,-4.175705 1.39706,-0.34146 3.42709,-0.548065 4.673798,-0.47573 0.506268,0.02943 0.530865,0.02682 0.499362,-0.05166 -0.01825,-0.04579 -0.102976,-0.264026 -0.188324,-0.485608 -0.540147,-1.402606 -1.648595,-3.627049 -2.381323,-4.778905 l -0.163505,-0.257028 -0.604402,3.92e-4 c -0.706595,4.59e-4 -1.271424,0.05363 -1.878162,0.177435 -2.387542,0.486589 -4.912905,1.864473 -7.590858,4.141891 -1.405746,1.195479 -3.399687,3.320186 -4.768636,5.081324 l -0.539402,0.693976 0.169242,0.0098 c 0.09308,0.0065 0.592323,0.03205 1.109427,0.05951 1.164898,0.06147 3.283685,0.279526 3.41129,0.351403 0.0046,0 0.165257,-0.128123 0.356596,-0.290711 z m 19.152379,-3.81207 c -0.194145,-0.538256 -0.613716,-1.414444 -0.920457,-1.922288 -0.936553,-1.550543 -2.286916,-2.808872 -3.899859,-3.634112 -0.483136,-0.247154 -1.427125,-0.643815 -1.458224,-0.61275 -0.0078,0.0078 0.163531,0.333811 0.380803,0.724456 0.780444,1.402997 1.46233,2.8971 1.916827,4.199903 l 0.233437,0.669125 0.810969,0.167363 c 0.913308,0.188552 1.915094,0.453822 2.580706,0.683514 0.246238,0.08496 0.462457,0.155983 0.48048,0.15788 0.01805,0 -0.03806,-0.193002 -0.124682,-0.433091 z m -4.497095,-0.703528 c 0,-0.01112 -0.0933,-0.278283 -0.207342,-0.593192 -0.736777,-2.034321 -2.009841,-4.431883 -3.641915,-6.858876 -0.472188,-0.702153 -0.803892,-1.174027 -1.726592,-2.456488 l -0.266735,-0.370698 -0.291535,0.02747 c -0.160339,0.01504 -0.357519,0.04055 -0.438172,0.05755 l -0.146644,0.03008 0.327984,0.402941 c 2.245469,2.758579 4.096894,5.90401 5.296846,8.99895 0.143203,0.369323 0.264243,0.677561 0.268971,0.684886 0.02453,0.03794 0.825134,0.113603 0.825134,0.07784 z M 24.754375,24.403134 c 1.071738,-0.359056 1.958789,-1.049502 2.628463,-2.045964 0.257382,-0.382992 0.479087,-0.774552 0.449787,-0.794368 -0.12652,-0.08561 -1.145236,-0.475732 -1.693224,-0.648327 -0.468388,-0.147612 -1.34636,-0.375014 -1.366636,-0.353955 -0.007,0.0072 -0.06468,0.204708 -0.128081,0.438649 -0.255591,0.943421 -0.401227,1.882066 -0.457544,2.948898 l -0.03107,0.587962 h 0.100823 c 0.05546,0 0.279306,-0.05951 0.497454,-0.132895 z"
       id="path2227" />
  </g>
</svg>
