<?xml version="1.0" encoding="UTF-8" standalone="no"?>
<svg
   xmlns:dc="http://purl.org/dc/elements/1.1/"
   xmlns:cc="http://creativecommons.org/ns#"
   xmlns:rdf="http://www.w3.org/1999/02/22-rdf-syntax-ns#"
   xmlns:svg="http://www.w3.org/2000/svg"
   xmlns="http://www.w3.org/2000/svg"
   xmlns:sodipodi="http://sodipodi.sourceforge.net/DTD/sodipodi-0.dtd"
   xmlns:inkscape="http://www.inkscape.org/namespaces/inkscape"
   width="100px"
   height="100px"
   viewBox="0 0 100 100"
   version="1.1"
   id="SVGRoot"
   sodipodi:docname="logoFour.svg"
   inkscape:version="1.0.1 (3bc2e813f5, 2020-09-07)">
  <defs
     id="defs1402" />
  <sodipodi:namedview
     id="base"
     pagecolor="#ffffff"
     bordercolor="#666666"
     borderopacity="1.0"
     inkscape:pageopacity="0.0"
     inkscape:pageshadow="2"
     inkscape:zoom="1.979899"
     inkscape:cx="84.02198"
     inkscape:cy="126.48638"
     inkscape:document-units="px"
     inkscape:current-layer="layer1"
     inkscape:document-rotation="0"
     showgrid="false"
     inkscape:window-width="1313"
     inkscape:window-height="1030"
     inkscape:window-x="224"
     inkscape:window-y="0"
     inkscape:window-maximized="0" />
  <metadata
     id="metadata1405">
    <rdf:RDF>
      <cc:Work
         rdf:about="">
        <dc:format>image/svg+xml</dc:format>
        <dc:type
           rdf:resource="http://purl.org/dc/dcmitype/StillImage" />
        <dc:title></dc:title>
      </cc:Work>
    </rdf:RDF>
  </metadata>
  <g
     inkscape:label="Ebene 1"
     inkscape:groupmode="layer"
     id="layer1">
    <path
       style="fill:#6e6e6e;stroke-width:0.117165"
       d="m 10.475972,92.763247 c -0.03664,-0.6595 -0.09473,-6.919663 -0.129087,-13.911466 -0.03436,-6.9918 -0.09047,-15.612193 -0.124704,-19.156426 C 10.073223,44.271226 9.9315317,21.756459 9.9830947,21.704896 c 0.06297,-0.06296 9.3698623,5.198143 9.6868963,5.475916 0.188145,0.164852 0.207527,1.059915 0.280354,12.94804 0.128454,20.968113 0.263141,36.504385 0.316927,36.558168 0.02778,0.02778 7.824109,-4.513939 17.325177,-10.092707 9.501068,-5.578772 19.104759,-11.217028 21.341531,-12.529457 l 4.066858,-2.386237 3.314515,1.88464 c 1.822988,1.03655 4.037595,2.286713 4.921358,2.77814 0.883762,0.491423 1.593642,0.938719 1.577517,0.993984 -0.01613,0.05527 -4.429888,2.68349 -9.808366,5.840494 -5.378476,3.157008 -13.285201,7.799022 -17.570499,10.315598 -10.609844,6.230711 -19.510614,11.456441 -25.951979,15.236666 -2.964265,1.739634 -6.074985,3.568726 -6.912714,4.064656 -0.837729,0.49593 -1.636752,0.96195 -1.775612,1.03561 -0.24904,0.13211 -0.253379,0.11763 -0.319086,-1.06516 z m 21.752278,-4.709665 0.0261,-5.700725 15.758652,-9.251696 C 56.68026,68.012729 66.262498,62.387548 69.306862,60.600764 72.351227,58.813979 74.841425,57.325699 74.840638,57.293478 74.839789,57.26127 65.178532,51.754999 53.371033,45.057341 41.56354,38.359682 31.864128,32.823649 31.816783,32.755047 c -0.04735,-0.0686 -0.0869,-2.647949 -0.08788,-5.731883 -0.0013,-4.502711 0.02769,-5.595831 0.147896,-5.549708 0.08232,0.0316 5.763348,3.245393 12.624491,7.14178 11.156623,6.335757 28.441457,16.148338 33.798779,19.187529 13.096553,7.429639 16.344279,9.30305 16.263565,9.381463 -0.05217,0.05067 -3.706441,2.211779 -8.120618,4.80245 -11.706574,6.870547 -43.572063,25.579782 -49.094141,28.824714 -2.61102,1.534305 -4.83717,2.824145 -4.947004,2.866285 -0.186679,0.0716 -0.197992,-0.29487 -0.173607,-5.624095 z M 21.140322,68.279606 c -0.04107,-3.625847 -0.101393,-11.33762 -0.13411,-17.137269 -0.03272,-5.799655 -0.08534,-12.416531 -0.116955,-14.70417 -0.0316,-2.287642 -0.08487,-10.248982 -0.118359,-17.691869 -0.0335,-7.442886 -0.09106,-14.1520259 -0.127943,-14.9092039 -0.0369,-0.757174 -0.03607,-1.376686 0.0017,-1.376686 0.03788,0 1.584686,0.862097 3.43735,1.915768 3.800806,2.161648 7.274667,4.133949 20.357345,11.5580019 5.026369,2.852314 10.826019,6.145666 12.888118,7.318555 2.062098,1.172888 8.797603,4.996422 14.96779,8.496741 6.170184,3.500326 11.218517,6.396033 11.218517,6.434907 0,0.03887 -2.184795,1.352531 -4.855106,2.919234 L 73.803577,43.952158 52.435293,31.822462 C 40.682735,25.151124 30.973539,19.656894 30.859296,19.613053 c -0.197807,-0.0759 -0.204443,0.229856 -0.139106,6.410193 0.072,6.809721 0.135558,14.669281 0.261966,32.39053 l 0.0761,10.669217 -4.498673,2.644828 c -2.474268,1.454657 -4.689035,2.757194 -4.9217,2.894529 l -0.423034,0.249701 z"
       id="path2545" />
  </g>
</svg>
