<?xml version="1.0" encoding="UTF-8" standalone="no"?>
<svg
   xmlns:dc="http://purl.org/dc/elements/1.1/"
   xmlns:cc="http://creativecommons.org/ns#"
   xmlns:rdf="http://www.w3.org/1999/02/22-rdf-syntax-ns#"
   xmlns:svg="http://www.w3.org/2000/svg"
   xmlns="http://www.w3.org/2000/svg"
   xmlns:sodipodi="http://sodipodi.sourceforge.net/DTD/sodipodi-0.dtd"
   xmlns:inkscape="http://www.inkscape.org/namespaces/inkscape"
   width="100px"
   height="100px"
   viewBox="0 0 100 100"
   version="1.1"
   id="SVGRoot"
   sodipodi:docname="logoSix.svg"
   inkscape:version="1.0.1 (3bc2e813f5, 2020-09-07)">
  <defs
     id="defs1402" />
  <sodipodi:namedview
     id="base"
     pagecolor="#ffffff"
     bordercolor="#666666"
     borderopacity="1.0"
     inkscape:pageopacity="0.0"
     inkscape:pageshadow="2"
     inkscape:zoom="2.8"
     inkscape:cx="88.546346"
     inkscape:cy="46.620911"
     inkscape:document-units="px"
     inkscape:current-layer="layer1"
     inkscape:document-rotation="0"
     showgrid="false"
     inkscape:window-width="1313"
     inkscape:window-height="1030"
     inkscape:window-x="224"
     inkscape:window-y="0"
     inkscape:window-maximized="0" />
  <metadata
     id="metadata1405">
    <rdf:RDF>
      <cc:Work
         rdf:about="">
        <dc:format>image/svg+xml</dc:format>
        <dc:type
           rdf:resource="http://purl.org/dc/dcmitype/StillImage" />
        <dc:title></dc:title>
      </cc:Work>
    </rdf:RDF>
  </metadata>
  <g
     inkscape:label="Ebene 1"
     inkscape:groupmode="layer"
     id="layer1">
    <path
       style="fill:#747474;stroke-width:0.345468"
       d="M 51.279869,92.606891 25.367604,92.518349 13.019393,71.133865 C 6.2278756,59.372387 0.67118066,49.564839 0.67118066,49.339303 c 0,-0.225546 5.55725754,-10.034074 12.34946234,-21.796731 L 25.370106,6.155925 H 50.423628 75.47715 l 11.912435,20.608849 c 6.551842,11.334864 12.181971,21.116705 12.511411,21.737419 l 0.598964,1.128568 -2.788768,1.608565 c -1.533819,0.884704 -2.830443,1.557562 -2.881389,1.495239 -0.05094,-0.06236 -5.268628,-9.091141 -11.594859,-20.064045 L 71.732708,12.7198 H 50.422962 29.113211 L 18.543819,31.029554 7.9744262,49.339312 18.543819,67.649059 29.113211,85.958816 h 21.880293 c 12.034159,0 21.873707,-0.11659 21.865665,-0.259096 -0.0081,-0.142506 -4.106273,-7.254814 -9.107178,-15.80512 l -9.09256,-15.546014 -15.44562,-0.08997 c -12.30297,-0.0716 -15.423034,-0.179476 -15.334613,-0.529981 0.06105,-0.242026 3.275709,-5.914704 7.143678,-12.605975 l 7.03267,-12.165936 H 53.319928 68.584312 L 80.004845,48.534346 91.42538,68.111978 87.022057,75.739879 C 84.60023,79.935234 81.39775,85.4665 79.905433,88.031591 l -2.713302,4.663805 z"
       id="path2591" />
  </g>
</svg>
