<?xml version="1.0" encoding="UTF-8" standalone="no"?>
<svg
   xmlns:dc="http://purl.org/dc/elements/1.1/"
   xmlns:cc="http://creativecommons.org/ns#"
   xmlns:rdf="http://www.w3.org/1999/02/22-rdf-syntax-ns#"
   xmlns:svg="http://www.w3.org/2000/svg"
   xmlns="http://www.w3.org/2000/svg"
   xmlns:sodipodi="http://sodipodi.sourceforge.net/DTD/sodipodi-0.dtd"
   xmlns:inkscape="http://www.inkscape.org/namespaces/inkscape"
   width="100px"
   height="100px"
   viewBox="0 0 100 100"
   version="1.1"
   id="SVGRoot"
   sodipodi:docname="logoOne.svg"
   inkscape:version="1.0.1 (3bc2e813f5, 2020-09-07)">
  <defs
     id="defs1402" />
  <sodipodi:namedview
     id="base"
     pagecolor="#ffffff"
     bordercolor="#666666"
     borderopacity="1.0"
     inkscape:pageopacity="0.0"
     inkscape:pageshadow="2"
     inkscape:zoom="3.959798"
     inkscape:cx="67.473434"
     inkscape:cy="34.176098"
     inkscape:document-units="px"
     inkscape:current-layer="layer1"
     inkscape:document-rotation="0"
     showgrid="false"
     inkscape:window-width="1313"
     inkscape:window-height="1030"
     inkscape:window-x="224"
     inkscape:window-y="0"
     inkscape:window-maximized="0" />
  <metadata
     id="metadata1405">
    <rdf:RDF>
      <cc:Work
         rdf:about="">
        <dc:format>image/svg+xml</dc:format>
        <dc:type
           rdf:resource="http://purl.org/dc/dcmitype/StillImage" />
        <dc:title></dc:title>
      </cc:Work>
    </rdf:RDF>
  </metadata>
  <g
     inkscape:label="Ebene 1"
     inkscape:groupmode="layer"
     id="layer1">
    <path
       id="path2048"
       style="fill:#6e6e6e;stroke-width:0.215758"
       d="m 25.075994,98.220618 c -0.421088,-1.068429 -0.447214,-1.09292 -0.460415,-0.431515 -0.01341,0.672379 -0.04966,0.701224 -0.880333,0.701224 h -0.866335 l 0.05726,-6.203033 0.05726,-6.203019 1.204732,-0.06372 c 2.221211,-0.117343 2.535119,0.587973 2.558165,5.747911 0.01023,2.289487 -0.05909,3.001243 -0.338301,3.473918 -0.329749,0.558215 -0.323168,0.669311 0.107875,1.821386 0.252479,0.674798 0.459043,1.299411 0.459043,1.388047 0,0.149326 -1.128769,0.90145 -1.352874,0.90145 -0.0548,0 -0.30052,-0.509726 -0.546049,-1.132722 z m -0.06843,-6.593333 c -0.04204,-3.088939 -0.351692,-3.507199 -0.380463,-0.513918 -0.01653,1.721777 0.05038,2.60887 0.190232,2.522418 0.120425,-0.07436 0.204475,-0.961881 0.190231,-2.0085 z m 32.173377,7.186669 c 0,-0.232033 -0.236792,-0.323627 -0.836607,-0.323627 -0.460137,0 -0.936587,-0.121351 -1.058777,-0.269709 -0.129755,-0.157507 -0.287464,-2.568539 -0.379145,-5.796354 -0.15505,-5.458617 -0.151317,-5.532326 0.303622,-5.987269 0.358644,-0.358635 0.723304,-0.460609 1.64727,-0.460609 1.557307,0 2.102426,0.486552 2.007586,1.791837 -0.06372,0.87652 -0.09136,0.907258 -0.87486,0.972094 -0.741708,0.06137 -0.809089,0.02101 -0.809089,-0.485446 0,-0.347205 -0.120231,-0.552424 -0.323637,-0.552424 -0.277641,0 -0.32363,0.659263 -0.32363,4.638792 0,3.917499 0.04886,4.638778 0.314176,4.638778 0.24036,0 0.329082,-0.367578 0.377579,-1.564241 0.06264,-1.545029 0.07097,-1.565111 0.683012,-1.635047 0.340788,-0.03898 0.716975,0.02654 0.835977,0.145552 0.138089,0.138075 0.159915,1.119706 0.06032,2.713843 l -0.156044,2.497473 h -0.733873 c -0.508482,0 -0.733865,-0.0994 -0.733865,-0.323643 z m 22.43877,0 c 0,-0.232033 -0.236794,-0.323627 -0.836607,-0.323627 -1.405555,0 -1.420126,-0.05985 -1.501621,-6.163089 -0.07061,-5.288117 -0.05936,-5.463537 0.377579,-5.900498 0.34745,-0.347454 0.721482,-0.450354 1.637018,-0.450354 1.5573,0 2.10242,0.486552 2.007579,1.791837 -0.06372,0.87652 -0.09136,0.907258 -0.87486,0.972094 -0.741708,0.06137 -0.809088,0.02101 -0.809088,-0.485446 0,-0.347205 -0.120232,-0.552424 -0.323631,-0.552424 -0.277641,0 -0.323637,0.659263 -0.323637,4.638792 0,3.917499 0.04886,4.638778 0.314184,4.638778 0.240352,0 0.329074,-0.367578 0.37757,-1.564241 l 0.06343,-1.564241 h 0.647274 0.647268 l 0.06061,2.643036 0.06061,2.643026 H 80.38159 c -0.533311,0 -0.761797,-0.097 -0.761797,-0.323643 z M 18.896234,98.010797 c -0.282049,-0.402684 -0.335866,-1.336162 -0.335866,-5.825449 0,-5.058255 0.0232,-5.369151 0.431511,-5.777447 0.325508,-0.325492 0.719193,-0.431515 1.602528,-0.431515 1.014862,0 1.232024,0.07754 1.628675,0.581836 0.314988,0.400445 0.437579,0.820834 0.393228,1.34849 -0.0622,0.739841 -0.09461,0.766655 -0.92746,0.766655 -0.730726,0 -0.873599,-0.0745 -0.931976,-0.48546 -0.03791,-0.267 -0.159285,-0.48546 -0.269696,-0.48546 -0.117603,0 -0.20075,1.921273 -0.20075,4.638792 0,3.979515 0.04603,4.638778 0.323637,4.638778 0.177995,0 0.323637,-0.145635 0.323637,-0.32364 0,-0.226019 0.227746,-0.323626 0.755148,-0.323626 0.698816,0 0.755149,0.04934 0.755149,0.661447 0,1.255943 -0.293662,1.496129 -1.829295,1.496129 -1.184144,0 -1.430803,-0.06883 -1.71847,-0.47953 z m 8.433043,-0.846666 c -0.07623,-0.729406 -0.13861,-3.545042 -0.13861,-6.256964 v -4.930781 h 1.833933 1.833942 v 1.078795 1.078781 h -0.86303 -0.86303 v 2.789846 c 0,2.728894 0.01064,2.791339 0.485452,2.858787 0.411032,0.05833 0.485452,0.201238 0.485452,0.931971 0,0.730719 -0.07441,0.873604 -0.485452,0.931971 -0.879993,0.124945 -0.571188,0.686214 0.377578,0.686214 h 0.86303 v 1.078782 1.078794 h -1.695324 -1.695323 z m 4.395571,0.193471 c 0.0014,-0.62301 0.146512,-3.268727 0.321578,-5.879393 0.175066,-2.610667 0.319222,-4.921424 0.320361,-5.135005 0.0014,-0.336245 0.168499,-0.379658 1.242659,-0.32364 l 1.240608,0.06468 0.452337,4.530903 c 0.248784,2.491996 0.519835,5.283362 0.60233,6.203019 l 0.149992,1.67213 h -0.65627 c -0.512434,0 -0.656271,-0.09454 -0.656271,-0.431515 0,-0.349334 -0.143837,-0.431516 -0.755148,-0.431516 -0.611311,0 -0.755155,0.08224 -0.755155,0.431516 0,0.349319 -0.143837,0.431515 -0.75515,0.431515 h -0.755148 z m 2.509857,-2.804856 c -0.07483,-0.622996 -0.136901,-1.367356 -0.137923,-1.654135 -0.0036,-1.097067 -0.328887,-0.12992 -0.434659,1.293634 -0.101185,1.361952 -0.07493,1.493227 0.298853,1.493227 0.367791,0 0.395845,-0.116099 0.273734,-1.132726 z m 3.096557,-1.117716 v -5.055297 l -0.485453,-0.06897 c -0.429517,-0.06095 -0.485458,-0.193249 -0.485458,-1.147721 v -1.078768 h 1.83394 1.833942 l 0.06648,1.041782 c 0.05582,0.874765 6.44e-4,1.059003 -0.344478,1.149228 -0.374172,0.09786 -0.423479,0.409982 -0.551195,3.489135 -0.07714,1.859921 -0.140576,4.134121 -0.140974,5.053791 l -6.45e-4,1.672116 h -0.863037 -0.863031 z m 3.236364,-1.188647 v -6.269997 h 0.866335 0.866335 l -0.05726,6.203033 -0.05726,6.203019 -0.80909,0.06703 -0.809089,0.06703 z m 3.267476,4.032424 c -0.535761,-4.859809 -0.928975,-9.684691 -0.813742,-9.984987 0.169904,-0.442752 1.558734,-0.423623 1.730452,0.02391 0.07205,0.187707 0.132449,0.843059 0.13426,1.456366 0.0014,0.613279 0.09743,1.260711 0.212457,1.438715 0.15229,0.235654 0.210688,0.05971 0.214827,-0.647279 0.0029,-0.534001 0.06669,-1.340046 0.141235,-1.791229 0.130487,-0.789667 0.164664,-0.81789 0.914593,-0.755155 0.707384,0.05916 0.785319,0.130473 0.847315,0.775307 0.06226,0.647777 -0.668377,8.970336 -0.955783,10.886827 -0.120729,0.80505 -0.126479,0.8091 -1.151574,0.8091 h -1.030239 z m 3.852518,-4.045443 v -6.256978 h 1.833934 1.833941 v 1.078795 1.078781 H 50.384584 49.41368 v 2.804856 2.804842 h 0.551795 c 0.515746,0 0.547462,0.05985 0.485453,0.916961 -0.05516,0.762287 -0.148238,0.928613 -0.551797,0.985916 -0.8581,0.121904 -0.577153,0.686214 0.341616,0.686214 0.45489,0 0.868771,0.04174 0.919733,0.0926 0.05096,0.051 0.05734,0.536419 0.01421,1.078795 l -0.07844,0.986123 h -1.704327 -1.704334 z m 11.734388,3.721803 c 0.28584,-5.097687 0.588708,-9.446011 0.676249,-9.709072 0.05603,-0.168426 0.499913,-0.269709 1.182077,-0.269709 0.680577,0 1.127283,0.101725 1.185051,0.269709 0.106175,0.308796 1.189125,11.022318 1.188618,11.758773 -2.19e-4,0.395483 -0.120301,0.485459 -0.647609,0.485459 -0.503437,0 -0.647274,-0.09592 -0.647274,-0.431515 0,-0.333425 -0.143837,-0.431515 -0.632732,-0.431515 -0.443241,0 -0.673749,0.129229 -0.769691,0.431515 -0.103245,0.325313 -0.326449,0.431515 -0.906893,0.431515 H 59.27986 Z m 2.505601,-0.66956 c 0,-0.219924 -0.06445,-1.016792 -0.143294,-1.770814 -0.175377,-1.677907 -0.466206,-1.18873 -0.488816,0.822202 -0.01202,1.06156 0.05372,1.348477 0.308473,1.348477 0.177995,0 0.323637,-0.17994 0.323637,-0.399865 z m 2.080425,1.878524 c -0.07622,-0.729406 -0.13861,-3.553639 -0.13861,-6.276065 v -4.949854 l 2.329869,0.07298 c 1.776491,0.0557 2.468304,0.163893 2.912725,0.455578 l 0.582852,0.382547 v 5.833506 5.833493 l -0.809088,-0.06703 -0.80909,-0.06703 -0.113681,-5.286058 -0.11368,-5.286058 -0.04814,5.340002 -0.04814,5.339989 H 66.89002 66.026991 l -0.03697,-5.339989 c -0.03429,-4.949398 -0.04821,-5.126947 -0.190275,-2.427285 -0.0843,1.602001 -0.164743,4.005002 -0.178764,5.340003 l -0.02551,2.427271 h -0.724419 -0.724412 z m 6.256965,0 c -0.07622,-0.729406 -0.138611,-3.550626 -0.138611,-6.269375 v -4.943179 l 0.916971,0.06634 c 0.791424,0.05722 0.927569,0.140204 0.994442,0.605747 0.04263,0.296661 0.0073,3.088027 -0.07839,6.203019 l -0.155872,5.663642 h -0.699961 c -0.698482,0 -0.700243,-0.0028 -0.838571,-1.326196 z m 2.373334,0 c -0.07624,-0.729406 -0.138618,-3.555325 -0.138618,-6.27981 v -4.953614 l 1.704074,0.0774 c 2.760763,0.125359 2.629198,-0.215764 2.560593,6.639413 l -0.05741,5.734933 -0.805297,0.06676 -0.805291,0.06676 -0.05777,-5.33493 c -0.04363,-4.034317 -0.123479,-5.356809 -0.327428,-5.424713 -0.209427,-0.0698 -0.269697,0.823321 -0.269697,3.995935 0,2.247152 -0.06242,4.682522 -0.138616,5.411928 -0.138034,1.320682 -0.141496,1.326183 -0.832295,1.326183 -0.690798,0 -0.694256,-0.0055 -0.832293,-1.326183 z M 46.212675,78.845238 C 44.540462,78.545468 42.096122,77.684303 40.173263,76.717516 36.915442,75.079511 34.098818,72.985181 28.940574,68.365338 27.731637,67.282576 26.207661,66.1097 25.553979,65.758942 l -1.188531,-0.637743 1.466549,-0.668702 c 2.598267,-1.184736 3.798677,-1.441632 6.752602,-1.445046 2.225538,-0.0028 2.978497,0.08472 4.307545,0.499571 1.821588,0.56854 3.863195,1.539971 4.945097,2.352954 1.136699,0.854157 0.699534,0.218764 -0.622352,-0.904563 -1.589501,-1.35073 -2.789345,-2.032798 -4.854541,-2.759647 l -1.726053,-0.607474 1.402423,0.129506 c 5.107036,0.471403 7.420616,1.830647 13.443041,7.897844 2.23168,2.248257 4.62927,4.457235 5.327969,4.908833 1.649647,1.066217 4.385161,1.941949 6.68836,2.141156 l 1.83394,0.158627 -2.481214,0.596887 c -5.650728,1.35934 -11.70919,1.948861 -14.636139,1.424148 z M 36.890513,56.222956 c -4.332084,-1.611023 -7.260802,-4.665876 -8.862264,-9.243919 -0.601974,-1.720849 -0.753032,-4.710935 -0.336627,-6.663461 0.577189,-2.706476 2.216427,-6.068682 3.983574,-8.170653 l 0.54417,-0.647272 -0.142018,1.078787 c -0.0781,0.593332 -0.202315,2.583694 -0.276003,4.423026 -0.141096,3.52177 0.216321,7.642396 0.884124,10.193159 0.721883,2.757311 3.223519,6.641856 5.656536,8.783486 1.204717,1.060438 0.883262,1.115104 -1.451492,0.246847 z m 17.863093,-0.614414 c 0.203693,-1.919589 1.650211,-4.414303 4.910302,-8.468479 3.737495,-4.647861 6.432698,-9.12467 7.598799,-12.621808 0.550238,-1.65018 0.576037,-1.929987 0.586881,-6.364845 0.0065,-2.551331 -0.06372,-5.075692 -0.155544,-5.609692 l -0.166882,-0.970908 0.448257,0.647272 c 1.566064,2.261351 3.495172,7.114014 4.194886,10.552207 0.508287,2.497561 0.743361,6.358959 0.53392,8.77023 -0.41344,4.759755 -1.62489,7.265827 -4.914898,10.167234 -1.897263,1.673171 -3.41989,2.355944 -7.587781,3.402521 -1.958003,0.491658 -3.926053,1.035045 -4.373454,1.207516 -1.160229,0.447285 -1.194981,0.424277 -1.074486,-0.711248 z m -8.783096,-0.09093 c -3.612246,-3.139703 -6.369093,-7.6059 -7.568476,-12.261185 -1.051225,-4.080248 -1.192126,-9.019734 -0.351038,-12.306118 1.434565,-5.605264 4.561394,-11.29659 11.376193,-20.70648 0.64523,-0.8909395 1.531682,-2.3023738 1.969884,-3.1365149 0.802203,-1.5270312 1.900234,-4.8941768 1.900234,-5.8271071 0,-1.02625465 0.425589,-0.69743735 1.478249,1.1421242 4.516197,7.8921908 7.583561,17.9300568 7.583561,24.8169498 0,6.549079 -1.323763,10.026794 -5.997467,15.756199 -4.843552,5.937614 -6.794684,8.908966 -8.333142,12.690413 l -0.487055,1.197157 z" />
  </g>
</svg>
