<?xml version="1.0" encoding="UTF-8" standalone="no"?>
<svg
   xmlns:dc="http://purl.org/dc/elements/1.1/"
   xmlns:cc="http://creativecommons.org/ns#"
   xmlns:rdf="http://www.w3.org/1999/02/22-rdf-syntax-ns#"
   xmlns:svg="http://www.w3.org/2000/svg"
   xmlns="http://www.w3.org/2000/svg"
   xmlns:sodipodi="http://sodipodi.sourceforge.net/DTD/sodipodi-0.dtd"
   xmlns:inkscape="http://www.inkscape.org/namespaces/inkscape"
   width="100px"
   height="100px"
   viewBox="0 0 100 100"
   version="1.1"
   id="SVGRoot"
   sodipodi:docname="logoFour.svg"
   inkscape:version="1.0.1 (3bc2e813f5, 2020-09-07)">
  <defs
     id="defs1402" />
  <sodipodi:namedview
     id="base"
     pagecolor="#ffffff"
     bordercolor="#666666"
     borderopacity="1.0"
     inkscape:pageopacity="0.0"
     inkscape:pageshadow="2"
     inkscape:zoom="1.979899"
     inkscape:cx="100.69625"
     inkscape:cy="2.9285467"
     inkscape:document-units="px"
     inkscape:current-layer="layer1"
     inkscape:document-rotation="0"
     showgrid="false"
     inkscape:window-width="1313"
     inkscape:window-height="1030"
     inkscape:window-x="224"
     inkscape:window-y="0"
     inkscape:window-maximized="0" />
  <metadata
     id="metadata1405">
    <rdf:RDF>
      <cc:Work
         rdf:about="">
        <dc:format>image/svg+xml</dc:format>
        <dc:type
           rdf:resource="http://purl.org/dc/dcmitype/StillImage" />
        <dc:title></dc:title>
      </cc:Work>
    </rdf:RDF>
  </metadata>
  <g
     inkscape:label="Ebene 1"
     inkscape:groupmode="layer"
     id="layer1">
    <path
       style="fill:#747474;stroke-width:0.0433148"
       d="M 47.606283,97.329893 C 44.765805,97.217956 41.731106,96.681406 39.037468,95.814858 34.236156,94.270268 29.814652,91.659545 26.016904,88.126719 21.97322,84.365117 18.68881,79.5322 16.613423,74.289785 c -0.25392,-0.641392 -0.691528,-1.855391 -0.65539,-1.818182 0.01092,0.01134 0.272815,0.400702 0.581801,0.865254 3.367355,5.062646 8.009759,9.344062 13.372339,12.332513 7.502688,4.18109 16.134232,5.763608 24.742159,4.536261 7.493514,-1.068452 14.404188,-4.248782 20.218644,-9.304743 0.826295,-0.718503 2.796934,-2.681096 3.485011,-3.470778 1.18095,-1.355338 2.244047,-2.740418 3.174955,-4.136567 0.309749,-0.464552 0.548642,-0.795912 0.530874,-0.736354 -0.08277,0.277452 -0.449088,1.261677 -0.71952,1.933205 -1.603716,3.982326 -3.932578,7.768687 -6.77676,11.017935 -0.6405,0.73172 -2.413347,2.508796 -3.159748,3.16729 -1.898518,1.674922 -3.999408,3.185335 -5.999106,4.313011 -4.780621,2.695908 -9.772388,4.127153 -15.152188,4.344431 -1.133956,0.04577 -1.416221,0.04542 -2.650211,-0.0034 z M 47.346395,85.20138 c -5.279961,-0.31019 -10.026229,-1.92823 -13.81743,-4.710463 -0.944215,-0.692928 -2.302488,-1.954484 -3.062291,-2.844232 -1.255801,-1.470584 -2.25406,-3.210627 -2.80801,-4.894579 -0.361644,-1.099364 -0.537454,-2.009853 -0.648193,-3.356899 -0.03621,-0.440728 -0.09545,-1.113191 -0.131597,-1.494361 -0.07889,-0.832009 -0.08972,-2.664017 -0.02062,-3.486845 0.07436,-0.885319 0.194655,-1.779644 0.454426,-3.378556 0.262501,-1.61571 0.346449,-2.213563 0.413179,-2.942475 l 0.04533,-0.495189 10.090583,-27.756685 C 43.411588,14.574923 47.976815,2.0253616 48.006715,1.9531816 c 0.05207,-0.1257038 0.405506,0.7260408 8.385991,20.2090034 4.582397,11.187134 8.321691,20.35018 8.309548,20.362327 -0.02483,0.02483 -3.284973,-1.013135 -3.327395,-1.059388 -0.01496,-0.01629 -2.878463,-5.492322 -6.363362,-12.168931 -3.484895,-6.676615 -6.341042,-12.134283 -6.347001,-12.128153 -0.0059,0.0061 -3.0752,8.441286 -6.820553,18.7448 l -6.809736,18.733665 -0.408145,1.53768 c -0.919512,3.464183 -1.211299,4.798965 -1.429807,6.540538 -0.105088,0.837625 -0.1031,3.272138 0.0033,4.154623 0.323792,2.683083 1.594233,5.116586 3.778262,7.237179 1.277979,1.240857 2.644236,2.195853 4.391021,3.069257 2.614457,1.30725 5.283087,2.030369 8.511365,2.306318 1.298715,0.111014 3.421033,0.06029 4.937893,-0.118029 2.852054,-0.335272 5.934697,-1.326651 8.251474,-2.653678 2.831402,-1.621803 4.896174,-3.671869 6.134398,-6.090713 0.7428,-1.451051 1.117979,-2.801648 1.221267,-4.396455 l 0.03225,-0.498119 0.09752,0.410179 c 0.235135,0.988965 0.321262,1.756857 0.320795,2.860088 -4.16e-4,0.924066 -0.07189,1.627491 -0.252249,2.481702 -0.869043,4.11601 -3.909746,7.884455 -8.399301,10.409538 -3.480212,1.9574 -7.394021,3.052664 -11.818259,3.307296 -0.869488,0.05004 -2.183317,0.04896 -3.059723,-0.0025 z M 5.8529905,70.643048 c -0.010459,-0.142331 2.0805583,-3.368009 3.1956571,-4.929603 2.2703994,-3.179489 4.4043514,-5.704121 7.0860754,-8.383395 2.87702,-2.874381 5.314479,-4.880234 8.471385,-6.971335 1.173798,-0.77751 3.444432,-2.138429 3.488962,-2.091126 0.006,0.0064 -0.654214,1.864679 -1.467208,4.129511 l -1.478171,4.117878 -1.180808,0.59764 c -4.302093,2.177424 -8.272971,4.804216 -12.248942,8.102846 -1.7930752,1.487614 -3.9313199,3.456261 -5.3580011,4.933012 -0.278703,0.288483 -0.5077283,0.511045 -0.5089494,0.494572 z M 91.592496,68.710793 C 84.851398,62.041205 76.87322,57.077097 68.28912,54.211191 63.861681,52.73304 59.430876,51.811324 54.666601,51.377372 c -3.804999,-0.346582 -7.775174,-0.33106 -11.391798,0.04453 -1.014757,0.105385 -2.878837,0.355401 -3.508402,0.470553 -0.250087,0.04574 -0.460481,0.07739 -0.46754,0.07033 -0.0095,-0.0095 2.883104,-8.104229 3.043087,-8.515936 0.03922,-0.100906 1.753866,-0.32323 3.510086,-0.455114 1.252809,-0.09408 3.906341,-0.127496 5.262751,-0.06626 5.797704,0.261717 11.396429,1.567108 16.654559,3.883163 2.611339,1.150224 5.507629,2.773131 7.904953,4.429464 2.64789,1.829454 4.802553,3.616641 7.163707,5.941935 3.48974,3.436742 6.402953,7.09944 9.216089,11.587107 0.595379,0.949781 0.610775,0.975127 0.591343,0.973385 -0.0077,-4.17e-4 -0.481183,-0.46404 -1.05294,-1.029734 z"
       id="path2561" />
  </g>
</svg>
