<?xml version="1.0" encoding="UTF-8" standalone="no"?>
<svg
   xmlns:dc="http://purl.org/dc/elements/1.1/"
   xmlns:cc="http://creativecommons.org/ns#"
   xmlns:rdf="http://www.w3.org/1999/02/22-rdf-syntax-ns#"
   xmlns:svg="http://www.w3.org/2000/svg"
   xmlns="http://www.w3.org/2000/svg"
   xmlns:sodipodi="http://sodipodi.sourceforge.net/DTD/sodipodi-0.dtd"
   xmlns:inkscape="http://www.inkscape.org/namespaces/inkscape"
   width="100px"
   height="100px"
   viewBox="0 0 100 100"
   version="1.1"
   id="SVGRoot"
   sodipodi:docname="logoTwo.svg"
   inkscape:version="1.0.1 (3bc2e813f5, 2020-09-07)">
  <defs
     id="defs1402" />
  <sodipodi:namedview
     id="base"
     pagecolor="#ffffff"
     bordercolor="#666666"
     borderopacity="1.0"
     inkscape:pageopacity="0.0"
     inkscape:pageshadow="2"
     inkscape:zoom="2.8"
     inkscape:cx="60.070551"
     inkscape:cy="45.032106"
     inkscape:document-units="px"
     inkscape:current-layer="layer1"
     inkscape:document-rotation="0"
     showgrid="false"
     inkscape:window-width="1313"
     inkscape:window-height="1030"
     inkscape:window-x="224"
     inkscape:window-y="0"
     inkscape:window-maximized="0" />
  <metadata
     id="metadata1405">
    <rdf:RDF>
      <cc:Work
         rdf:about="">
        <dc:format>image/svg+xml</dc:format>
        <dc:type
           rdf:resource="http://purl.org/dc/dcmitype/StillImage" />
        <dc:title></dc:title>
      </cc:Work>
    </rdf:RDF>
  </metadata>
  <g
     inkscape:label="Ebene 1"
     inkscape:groupmode="layer"
     id="layer1">
    <path
       id="path2188"
       style="fill:#747474;stroke-width:0.661736"
       d="M 37.79049,97.319443 C 35.606763,96.755302 33.684918,96.170135 33.519728,96.019058 33.03999,95.580327 60.763189,68.012 62.738145,66.96387 c 2.574317,-1.366219 4.334209,-1.173859 6.183991,0.675931 1.144545,1.144537 1.624264,2.354044 1.624264,4.095195 0,2.319496 -0.738776,3.213653 -12.053208,14.588267 C 44.975019,99.913339 45.909675,99.416901 37.79049,97.319443 Z M 76.505836,76.922705 C 88.552791,64.867181 98.09571,55.811073 98.20692,56.328649 c 0.39312,1.829546 -1.948265,10.077285 -4.174998,14.706853 -4.810514,10.001478 -12.752127,18.0474 -22.492919,22.788375 -4.926488,2.397783 -12.147889,4.584171 -15.2161,4.606916 -0.898411,0.0067 5.544054,-6.85881 20.182933,-21.508088 z m -53.1083,12.927046 c -1.433111,-1.127283 -1.819566,-1.983248 -1.819566,-4.030177 0,-3.459135 1.786721,-5.245856 5.245856,-5.245856 6.621855,0 7.259496,9.289072 0.709557,10.3368 -1.757318,0.2811 -2.755378,0.02518 -4.135847,-1.060767 z M 11.179303,79.415681 C 10.130277,78.050852 8.730399,76.072574 8.068459,75.019515 L 6.8649334,73.104855 33.263446,46.730321 c 23.55028,-23.528888 26.622871,-26.374536 28.477933,-26.374536 1.143685,0 2.561459,0.184976 3.150622,0.411058 1.644553,0.631075 3.176847,4.107478 2.694045,6.112135 -0.269803,1.120274 -9.976703,11.318276 -27.016505,28.383357 -14.627471,14.64917 -26.795094,26.634854 -27.039161,26.634854 -0.244069,0 -1.302055,-1.116678 -2.351077,-2.481508 z m 23.784889,0.0534 c -0.4626,-0.186124 -1.298577,-1.223083 -1.857716,-2.304353 -0.79448,-1.53635 -0.864439,-2.427033 -0.320162,-4.076058 0.470951,-1.426885 9.253702,-10.665323 27.124665,-28.532022 22.183182,-22.177886 26.585483,-26.291357 27.407397,-25.609227 0.538561,0.446963 2.108402,2.452218 3.488544,4.456122 l 2.509347,3.643464 -26.456515,26.432488 C 41.93866,78.377947 40.269815,79.908945 38.104259,79.859732 36.839822,79.83101 35.426791,79.655209 34.964192,79.469083 Z M 2.8310208,61.879689 c -1.4938295,-6.38705 -1.4256912,-8.137539 0.3655954,-9.39221 1.5181481,-1.063349 4.2345407,-1.338591 6.1096011,-0.619067 1.6133977,0.619121 3.1789677,4.109385 2.6997417,6.01877 -0.391531,1.559982 -6.6494211,8.790091 -7.6081067,8.790091 -0.2446136,0 -0.9496873,-2.158913 -1.5668315,-4.797584 z m 71.3549232,3.398966 c -2.041613,-1.158705 -2.97781,-2.644824 -2.97781,-4.726983 0,-4.157194 3.573485,-6.658812 7.304383,-5.113428 2.346818,0.972083 3.283386,2.445827 3.283386,5.166592 0,3.775731 -4.414834,6.487192 -7.609959,4.673819 z M 84.201218,53.394534 c -1.373054,-1.080045 -1.743581,-1.94349 -1.743581,-4.063109 0,-2.513391 0.424438,-3.123611 6.410351,-9.21627 3.525701,-3.588559 6.603646,-6.524659 6.839878,-6.524659 0.580051,0 2.631424,8.632823 2.631424,11.073861 0,1.533835 -0.90757,2.822566 -4.244007,6.026372 -4.732832,4.544707 -6.826404,5.116823 -9.894065,2.703805 z M 13.685173,49.05204 c -1.880371,-2.390507 -1.744172,-4.982366 0.373076,-7.099616 4.100605,-4.100603 10.659173,0.04076 8.747796,5.523725 -0.842523,2.416871 -2.321131,3.319472 -5.437822,3.319472 -1.709031,0 -2.669039,-0.454474 -3.68305,-1.743581 z M 1.7259055,43.830278 c 0,-2.33678 2.673934,-11.092885 4.6583806,-15.254399 C 10.764621,19.39003 19.621336,10.665604 29.115597,6.1841002 33.700442,4.0199501 42.663974,1.4664789 44.051945,1.9291346 44.432821,2.0560923 35.065272,11.835703 23.235173,23.661599 8.349966,38.541521 1.7259055,44.752731 1.7259055,43.830278 Z M 26.540987,39.408593 c -2.089824,-1.198509 -2.93407,-2.661401 -2.956764,-5.123401 -0.01938,-2.102651 1.167408,-3.47568 15.014379,-17.370557 C 51.268085,4.20132 53.934389,1.8271908 55.542777,1.8271908 c 1.878052,0 9.476932,1.763218 10.605893,2.4609538 0.718221,0.4438838 -32.320374,33.6665164 -34.777238,34.9709634 -2.130907,1.131382 -3.067777,1.160379 -4.830445,0.149485 z M 71.22814,19.512353 c -4.838253,-2.457255 -3.958443,-9.295807 1.305841,-10.1500839 3.421953,-0.5553055 5.953245,1.6072069 5.953245,5.0859249 0,2.485327 -1.712645,5.245856 -3.254555,5.245856 -0.33419,0 -1.004197,0.145879 -1.488905,0.324176 -0.484715,0.178297 -1.616746,-0.04934 -2.515626,-0.505873 z" />
  </g>
</svg>
